{"glyphs":{"0":{"ha":642,"x_min":54,"x_max":683,"o":"m 572 832 q 609 780 597 807 q 624 725 621 753 q 625 667 628 697 q 618 604 622 636 q 606 481 611 542 q 593 357 600 419 q 542 236 585 288 q 442 161 500 185 q 322 145 385 138 q 213 201 260 153 q 176 253 188 226 q 161 308 164 281 q 160 367 158 336 q 167 429 163 397 q 180 553 174 492 q 193 676 186 614 q 243 797 200 746 q 344 871 286 847 q 464 887 401 894 q 572 832 526 879 m 589 583 q 596 640 592 613 q 600 694 600 667 q 592 747 600 721 q 565 799 585 772 q 506 847 540 831 q 435 863 472 863 q 363 851 399 864 q 297 813 326 838 q 246 754 267 789 q 221 676 225 719 q 208 563 214 619 q 197 450 203 507 q 190 394 194 421 q 185 340 185 367 q 192 286 185 313 q 219 235 200 260 q 313 175 257 186 q 423 183 369 164 q 517 247 476 201 q 565 357 558 292 q 576 469 571 414 q 589 583 582 525 m 525 492 q 521 455 524 481 q 515 401 518 429 q 508 347 513 372 q 497 308 503 321 q 426 238 471 257 q 338 226 381 218 q 265 268 294 235 q 242 357 235 301 q 251 449 246 403 q 260 542 256 494 q 264 578 261 553 q 270 633 267 604 q 278 687 274 661 q 289 725 282 713 q 360 796 315 776 q 449 807 406 815 q 521 765 492 799 q 544 676 550 732 q 534 584 539 631 q 525 492 529 538 m 483 349 q 493 431 490 390 q 500 513 496 472 q 509 594 504 553 q 518 676 514 636 q 494 754 524 728 q 424 782 464 781 q 348 759 385 783 q 301 683 311 735 q 292 602 294 643 q 285 521 289 561 q 276 438 281 479 q 268 357 272 397 q 277 299 264 322 q 312 264 290 276 q 361 250 333 251 q 414 260 389 249 q 458 292 439 271 q 483 349 478 314 m 299 0 q 164 38 224 0 q 75 142 104 75 q 59 205 64 172 q 60 282 54 238 l 90 571 q 105 642 94 611 q 131 701 115 672 l 135 711 l 136 713 l 135 713 l 153 742 l 154 746 q 167 774 160 761 q 181 801 174 788 q 293 908 225 868 q 438 947 361 947 q 573 908 513 947 q 663 801 633 868 q 678 737 674 769 q 678 660 683 704 l 649 371 q 632 293 643 326 q 603 231 621 260 l 586 207 l 563 165 l 563 167 l 561 165 l 563 165 l 549 142 q 441 38 508 75 q 299 0 374 0 m 135 371 q 149 243 126 294 q 227 147 174 182 q 350 113 281 113 q 479 147 418 113 q 579 243 540 182 q 606 301 596 271 q 621 371 617 331 l 650 660 q 651 731 656 700 q 636 790 647 763 q 556 885 610 850 q 435 919 503 919 q 304 885 365 919 q 206 790 243 850 q 178 731 188 763 q 164 660 169 700 l 135 371 m 368 278 q 315 301 336 278 q 297 356 294 324 l 331 661 q 337 698 332 679 q 364 735 342 717 q 417 753 386 753 q 469 731 449 753 q 486 676 489 708 l 454 371 q 447 335 451 354 q 419 297 442 315 q 395 283 408 289 q 368 278 382 278 m 364 690 l 374 708 l 372 707 l 364 692 l 364 690 m 325 356 q 337 321 322 336 q 371 306 351 306 q 383 307 378 306 l 413 588 q 401 624 415 608 q 365 640 386 640 q 360 640 363 640 q 356 639 358 639 l 325 356 z "},"1":{"ha":438,"x_min":101,"x_max":497,"o":"m 435 897 l 356 139 l 247 139 l 315 789 l 207 789 l 218 897 l 435 897 l 435 897 m 332 167 l 406 871 l 243 871 l 238 817 l 346 817 l 278 167 l 332 167 l 332 167 m 168 936 l 169 947 l 497 947 l 407 85 l 401 85 l 354 0 l 140 0 l 207 640 l 101 640 l 124 854 l 168 936 m 194 919 l 176 753 l 282 753 l 215 113 l 382 113 l 467 919 l 194 919 z "},"2":{"ha":642,"x_min":31,"x_max":682,"o":"m 186 367 l 167 172 l 546 172 l 551 225 l 382 225 l 361 225 l 226 225 q 232 296 229 261 q 240 367 235 331 q 272 433 247 403 q 332 479 296 464 q 366 488 349 486 q 403 492 383 490 q 474 510 440 493 q 537 552 513 528 q 579 613 561 576 q 598 683 596 647 q 590 752 600 719 q 556 810 579 785 q 500 850 533 835 q 431 864 467 864 q 360 851 394 864 q 296 815 325 839 q 246 757 267 790 l 310 757 q 376 804 340 793 q 443 809 411 815 q 501 782 475 803 q 538 731 526 761 q 544 666 550 701 q 507 596 538 631 q 463 560 485 572 q 411 546 440 549 q 357 540 383 543 q 304 524 331 536 q 225 458 257 500 q 186 367 193 415 m 581 251 l 568 144 l 136 144 l 160 368 q 192 453 167 413 q 256 524 217 494 q 349 565 300 556 q 399 572 375 572 q 450 583 424 571 q 491 617 475 596 q 513 661 507 638 q 515 708 519 685 q 494 751 511 732 q 454 778 478 771 q 406 783 431 786 q 359 767 382 781 q 321 731 336 753 l 206 731 q 246 801 219 769 q 306 853 272 832 q 378 884 339 875 q 457 889 417 893 q 528 867 496 885 q 584 820 561 849 q 618 756 607 792 q 625 681 629 721 q 603 605 621 640 q 559 540 586 569 q 496 492 532 511 q 419 467 460 472 q 383 464 400 464 q 346 457 365 464 q 282 403 303 442 q 271 371 275 392 q 264 327 267 350 q 260 283 261 304 q 257 251 258 263 l 364 251 l 385 251 l 581 251 m 369 322 q 358 321 364 321 q 346 321 353 321 q 333 321 339 321 q 321 318 328 321 q 319 317 319 318 l 319 313 l 319 307 l 640 307 l 617 86 l 610 86 l 564 0 l 31 0 l 60 278 q 72 328 63 303 q 93 376 81 353 l 119 424 q 142 472 128 447 q 175 518 156 496 q 212 556 192 539 q 254 586 232 572 l 90 586 q 131 704 103 657 l 160 754 q 199 829 176 800 q 243 875 222 858 q 337 928 286 910 q 439 947 388 947 q 569 913 513 947 q 657 814 625 879 q 677 747 672 782 q 679 676 682 713 q 659 599 675 636 q 617 526 643 561 l 589 475 q 563 435 578 454 q 531 399 547 417 q 453 347 492 365 q 369 322 415 329 m 293 313 q 300 362 296 338 q 317 401 304 386 q 359 430 338 425 q 397 435 381 435 q 406 435 401 435 q 417 436 411 435 q 495 458 460 442 q 564 506 531 474 q 617 571 596 535 q 647 646 638 607 q 651 724 656 685 q 631 799 647 763 q 552 888 603 857 q 436 919 501 919 q 343 903 389 919 q 260 856 297 886 q 206 794 233 832 q 168 699 179 757 l 336 699 q 369 740 347 726 q 415 753 392 753 q 472 728 450 753 q 483 672 489 704 q 454 620 478 640 q 396 600 431 600 q 319 586 354 597 q 193 501 243 560 q 153 437 168 471 q 132 367 139 403 l 131 346 l 106 114 l 592 114 l 610 279 l 290 279 l 293 304 l 293 313 m 364 639 q 340 633 353 639 q 318 617 328 628 l 317 614 q 397 628 357 626 q 364 639 383 639 m 354 682 l 360 689 q 354 682 354 685 q 353 679 353 681 l 354 682 z "},"3":{"ha":642,"x_min":53,"x_max":685,"o":"m 628 699 q 603 601 628 642 q 543 518 578 560 q 585 436 569 476 q 590 339 601 396 q 548 247 579 289 q 469 178 517 204 q 369 148 419 150 q 274 164 318 146 q 201 219 231 182 q 163 307 171 256 l 278 307 q 327 260 294 272 q 393 257 360 249 q 453 291 426 265 q 485 357 479 317 q 471 422 489 393 q 418 461 453 450 q 392 464 411 463 q 350 465 372 465 q 308 465 328 465 q 281 465 289 465 l 292 571 l 396 571 q 453 584 426 569 q 497 622 481 599 q 519 674 514 646 q 511 729 524 703 q 474 769 499 756 q 422 783 450 783 q 367 770 394 783 q 322 731 340 757 l 207 731 q 264 819 225 782 q 349 874 303 856 q 447 889 396 892 q 540 858 497 886 q 605 790 582 832 q 628 699 628 749 m 599 668 q 592 751 606 711 q 547 818 579 790 q 474 857 515 847 q 390 858 432 867 q 310 824 347 850 q 249 757 272 799 l 311 757 q 372 799 338 786 q 438 809 406 813 q 498 787 471 806 q 538 735 525 768 q 543 667 550 701 q 515 606 536 633 q 463 560 494 578 q 393 544 431 543 l 315 544 l 310 492 l 389 492 q 455 476 426 493 q 498 431 483 458 q 513 369 513 403 q 492 301 513 335 q 441 249 472 268 q 376 228 410 231 q 312 238 343 225 q 261 281 281 251 l 199 281 q 246 213 214 239 q 318 179 278 188 q 402 180 358 171 q 485 218 446 189 q 542 285 521 246 q 567 368 564 325 q 563 412 568 392 q 550 450 558 432 q 531 485 542 468 q 508 518 519 501 q 565 586 539 553 q 599 668 590 619 m 681 678 q 622 533 672 600 l 611 514 q 647 358 656 439 q 625 276 643 319 q 610 247 618 261 q 590 219 601 233 l 561 167 q 486 74 533 114 q 385 15 439 35 q 340 4 361 8 q 297 0 319 0 q 200 20 247 0 q 118 79 153 40 l 118 78 q 57 269 53 147 l 103 353 q 102 358 101 356 q 103 363 103 360 l 175 363 l 193 535 l 222 588 l 90 588 q 106 640 97 615 q 128 689 114 665 q 131 694 128 692 l 135 701 l 133 700 l 158 747 q 207 828 178 792 q 273 892 236 865 q 351 935 310 919 q 436 950 392 950 q 522 936 482 950 q 621 867 579 915 q 676 760 663 819 q 681 678 685 718 m 578 518 l 589 532 q 644 637 629 581 q 649 750 660 693 q 601 849 638 808 q 510 910 564 890 q 433 922 472 922 q 342 905 386 922 q 263 858 299 888 q 203 788 228 828 q 169 701 179 747 l 339 701 q 370 740 349 725 q 418 756 392 756 q 469 732 449 756 q 476 649 500 694 q 445 613 465 626 q 401 600 425 600 l 399 600 l 264 600 l 246 435 l 325 435 l 338 435 l 358 435 q 401 431 378 435 q 439 408 424 428 q 452 376 450 393 q 449 339 454 358 q 394 286 431 299 q 368 282 382 282 q 323 297 342 282 q 300 335 304 311 l 131 335 q 144 253 129 290 q 186 185 158 215 q 260 132 217 150 q 349 114 303 114 q 388 117 368 114 q 428 128 408 121 q 531 187 486 146 q 600 285 576 228 q 620 399 624 343 q 586 503 617 456 l 578 518 m 346 319 q 364 311 350 314 q 346 319 357 314 m 397 628 q 365 642 385 642 q 331 628 349 642 l 397 628 m 450 650 l 432 619 l 453 654 l 451 653 l 450 651 l 446 646 l 450 650 z "},"4":{"ha":642,"x_min":82,"x_max":703,"o":"m 643 886 l 565 146 l 458 146 l 486 410 q 397 408 442 410 q 307 421 351 406 q 236 467 267 436 q 192 538 206 497 q 182 624 176 581 q 192 711 188 667 q 201 799 197 756 q 211 886 206 842 l 319 886 q 304 753 313 819 q 290 618 296 686 q 307 556 288 583 q 360 519 326 529 q 386 517 367 518 q 427 516 406 517 q 469 515 449 515 q 496 515 489 515 l 536 886 l 643 886 m 542 172 l 614 860 l 560 860 l 519 489 q 447 488 483 489 q 374 490 410 488 q 308 515 336 493 q 269 572 279 538 q 265 603 265 585 q 265 643 264 622 q 269 683 267 664 q 274 715 272 703 q 281 788 276 751 q 289 860 285 824 l 236 860 q 226 778 231 819 q 218 694 222 736 q 210 613 214 653 q 224 533 206 574 q 273 472 240 496 q 347 439 306 447 q 380 437 356 438 q 431 436 404 436 q 483 436 458 436 q 515 436 507 436 l 488 172 l 542 172 m 482 947 l 703 947 l 613 85 l 607 85 l 561 0 l 346 0 l 374 265 q 278 271 325 265 q 188 304 231 276 q 120 369 144 332 q 85 458 96 406 q 82 492 82 472 q 83 532 82 511 q 85 574 83 553 q 90 615 88 596 l 115 854 l 160 936 l 161 947 l 383 947 l 354 669 q 351 620 351 633 q 353 601 351 607 q 377 576 360 581 q 406 571 394 571 l 435 854 l 481 936 l 482 947 m 443 544 l 429 544 q 419 544 424 544 q 407 543 414 543 q 389 544 400 543 q 366 549 378 544 q 343 563 354 553 q 326 590 332 572 q 324 622 324 599 q 331 706 324 644 l 332 714 l 353 919 l 186 919 l 168 744 l 165 719 q 160 677 163 700 q 157 631 158 654 q 156 588 156 608 q 158 554 156 568 q 189 473 167 506 q 251 414 211 440 q 335 383 292 388 q 425 379 379 379 l 450 379 l 422 113 l 588 113 l 672 919 l 507 919 l 468 544 l 443 544 z "},"5":{"ha":642,"x_min":61,"x_max":714,"o":"m 653 886 l 642 781 l 317 781 l 294 569 q 362 571 329 569 q 426 568 394 572 q 486 552 457 564 q 542 514 515 540 q 596 402 589 468 q 569 274 603 336 q 468 173 532 204 q 341 147 404 142 q 228 191 278 151 q 165 304 178 231 l 282 304 q 319 261 296 274 q 369 250 343 249 q 422 265 396 251 q 465 299 447 278 q 488 347 482 319 q 481 406 493 375 q 456 442 471 431 q 424 458 442 454 q 385 463 406 463 q 342 463 364 463 l 175 463 l 221 886 l 653 886 m 617 807 l 622 860 l 244 860 l 204 489 l 389 489 q 473 463 438 489 q 515 389 508 436 q 508 324 519 354 q 476 272 497 294 q 426 238 454 250 q 367 224 397 225 q 310 236 338 224 q 264 278 283 249 l 201 278 q 275 192 224 218 q 383 174 326 167 q 491 217 440 181 q 563 319 542 254 q 563 432 582 378 q 493 517 543 486 q 440 538 467 532 q 383 543 414 543 l 265 543 l 293 807 l 617 807 m 171 942 l 714 942 l 690 722 l 683 722 l 638 636 l 363 636 l 361 624 l 365 624 q 444 619 408 624 q 514 600 481 614 q 581 555 554 581 q 628 492 608 529 q 650 353 658 422 q 628 272 646 313 q 585 197 611 232 l 582 190 l 565 160 l 567 161 l 560 150 q 521 93 544 121 q 420 21 476 47 q 306 -6 364 -6 q 207 14 254 -6 q 126 68 160 33 q 78 151 96 100 q 63 264 61 201 l 90 315 l 68 315 l 125 849 l 169 931 l 171 942 m 600 224 l 603 226 q 600 224 603 225 m 144 428 l 381 428 q 428 416 407 428 q 456 382 449 404 q 433 303 468 340 q 372 275 408 275 q 329 289 349 275 q 303 329 310 303 l 136 329 q 149 244 135 283 q 194 175 164 204 q 267 126 225 143 q 358 108 310 108 q 461 131 411 108 q 551 197 511 154 q 620 334 606 257 q 603 478 635 411 q 561 535 585 513 q 501 575 538 558 q 437 592 469 589 q 363 596 404 596 l 329 596 l 344 750 l 665 750 l 683 914 l 196 914 l 144 428 m 351 313 q 368 304 360 304 q 360 308 365 307 q 351 313 356 310 z "},"6":{"ha":1157,"x_min":53,"x_max":681,"o":"m 626 732 l 508 732 q 478 767 497 754 q 435 784 458 781 q 387 781 411 788 q 342 756 363 774 q 309 715 318 736 q 297 668 300 694 q 292 620 294 644 q 288 572 290 596 q 353 574 321 572 q 416 572 385 575 q 476 558 447 568 q 533 522 506 547 q 592 416 581 479 q 574 290 603 353 q 484 185 543 221 q 362 147 425 149 q 244 176 299 144 q 165 274 189 207 q 156 336 154 306 q 161 399 157 367 q 167 463 164 431 q 174 526 171 494 q 181 590 178 558 q 188 654 185 622 q 198 718 190 688 q 225 779 206 749 q 331 870 267 843 q 456 890 394 897 q 567 842 518 882 q 626 732 615 803 m 560 326 q 556 438 576 385 q 486 521 536 492 q 433 541 460 536 q 375 546 407 546 l 258 546 l 271 663 q 283 719 274 693 q 318 769 292 746 q 371 803 342 792 q 429 812 400 814 q 484 797 458 810 q 526 758 510 783 l 590 758 q 547 822 575 797 q 483 858 518 847 q 408 864 447 868 q 334 842 369 860 q 270 795 299 825 q 226 722 242 765 q 218 678 222 711 q 210 608 214 646 q 202 538 206 571 q 197 493 199 504 q 191 436 194 465 q 185 379 188 407 q 184 323 182 350 q 199 268 186 296 q 278 189 225 211 q 387 176 331 167 q 492 223 443 185 q 560 326 540 261 m 471 463 q 503 418 493 443 q 512 366 513 393 q 499 313 511 339 q 463 265 486 286 q 409 235 438 244 q 353 226 381 225 q 301 240 325 228 q 260 275 276 251 q 240 326 242 300 q 240 381 238 351 q 247 436 243 408 q 253 492 250 464 l 367 492 q 422 487 397 492 q 471 463 447 482 m 444 283 q 473 322 463 300 q 485 365 483 343 q 478 407 486 388 q 453 442 469 426 q 413 461 433 457 q 369 465 393 465 l 276 465 q 272 421 274 443 q 267 376 269 399 q 266 332 264 353 q 283 292 268 311 q 316 264 296 274 q 358 253 336 254 q 403 259 381 251 q 444 283 425 267 m 426 418 q 450 361 453 397 q 442 329 449 344 q 421 303 436 314 q 395 286 410 292 q 365 281 381 281 q 333 288 349 281 q 307 310 317 294 q 297 353 296 326 q 301 400 299 381 l 303 410 l 304 433 l 328 433 l 338 433 q 356 435 343 435 q 394 432 374 435 q 426 418 414 429 m 339 318 q 361 308 349 311 l 360 310 q 350 315 356 313 q 339 318 344 317 m 536 131 q 431 35 494 71 q 297 0 368 0 q 217 13 256 0 q 146 50 178 26 l 144 50 q 89 113 111 76 q 60 193 67 149 q 55 256 53 225 q 63 318 57 286 l 83 517 q 97 615 89 568 q 128 703 104 661 l 154 753 q 188 815 167 785 q 243 876 208 846 q 433 949 331 949 q 532 929 485 949 q 614 874 579 910 q 663 788 644 840 q 678 674 681 736 l 672 674 l 625 588 l 543 588 q 610 514 578 564 q 644 358 653 443 q 626 285 640 322 q 590 217 613 249 l 579 201 l 561 169 l 561 171 l 556 160 q 536 131 549 144 m 131 708 q 135 714 131 711 l 131 708 m 211 160 q 349 114 268 114 q 471 144 414 114 q 568 232 528 175 q 617 366 613 294 q 586 499 622 438 q 538 554 564 533 q 483 585 513 575 q 419 597 453 594 q 346 600 385 600 l 322 600 l 325 624 l 326 639 q 328 665 326 650 q 334 694 329 679 q 349 722 339 708 q 378 744 360 735 q 415 754 393 754 q 458 739 440 754 q 483 701 476 724 l 651 701 q 593 854 651 789 q 519 903 561 886 q 431 921 478 921 q 260 856 340 921 q 209 801 228 829 q 180 741 190 772 q 165 676 169 710 q 156 607 160 643 l 154 589 l 138 433 l 135 406 q 128 346 131 375 q 132 289 126 317 q 211 160 147 207 m 353 628 q 372 628 363 628 q 393 626 382 628 q 363 640 379 640 q 354 638 360 640 l 353 628 m 388 717 l 354 658 l 354 657 l 388 717 z "},"7":{"ha":642,"x_min":96,"x_max":706,"o":"m 644 894 l 629 740 l 408 143 l 296 143 l 533 786 l 200 786 l 211 894 l 644 894 l 644 894 m 601 743 l 614 867 l 236 867 l 231 814 l 571 814 l 335 169 l 390 169 l 601 743 l 601 743 m 163 938 l 164 949 l 706 949 l 683 731 l 447 86 l 442 86 l 396 0 l 175 0 l 410 640 l 96 640 l 118 856 l 163 938 m 189 921 l 172 754 l 493 754 l 257 114 l 429 114 l 657 733 l 676 921 l 189 921 z "},"8":{"ha":642,"x_min":56,"x_max":688,"o":"m 621 758 q 629 697 631 726 q 615 633 628 667 q 585 574 604 600 q 543 522 567 547 q 574 469 560 496 q 593 411 589 443 q 571 285 601 347 q 481 185 540 222 q 356 149 422 149 q 237 185 288 149 q 168 285 186 222 q 172 411 150 347 q 203 469 183 443 q 246 522 222 496 q 215 574 229 547 q 194 633 200 600 q 197 697 192 667 q 218 758 203 726 q 308 858 249 821 q 433 894 367 894 q 551 858 500 894 q 621 758 603 821 m 553 307 q 568 370 567 342 q 562 424 569 399 q 540 473 554 449 q 508 522 525 497 q 550 571 531 547 q 582 619 569 594 q 599 673 594 644 q 597 738 604 701 q 539 832 585 796 q 431 868 493 868 q 315 832 368 868 q 236 738 261 796 q 219 673 221 701 q 226 619 218 644 q 248 571 233 594 q 279 522 263 547 q 238 473 257 497 q 206 424 218 449 q 188 370 193 399 q 192 307 183 342 q 250 212 204 249 q 358 175 296 175 q 474 212 421 175 q 553 307 528 249 m 425 814 q 476 803 453 814 q 517 776 500 793 q 541 734 533 758 q 546 682 549 710 q 497 588 540 626 q 397 549 454 549 q 346 559 369 549 q 306 588 322 569 q 281 630 289 606 q 275 682 272 654 q 325 776 282 738 q 425 814 368 814 m 519 682 q 496 757 525 726 q 422 788 467 788 q 343 756 378 788 q 303 682 308 725 q 327 606 299 638 q 400 575 356 575 q 480 606 444 575 q 519 682 515 638 m 392 494 q 443 484 419 494 q 483 456 467 474 q 507 413 499 438 q 513 363 515 389 q 463 268 506 307 q 364 229 421 229 q 312 240 336 229 q 271 268 288 250 q 247 310 254 286 q 242 363 239 335 q 258 413 244 389 q 291 456 271 438 q 338 484 311 474 q 392 494 364 494 m 486 363 q 462 438 490 407 q 389 468 433 468 q 346 460 367 468 q 309 437 325 451 q 282 403 293 422 q 269 363 271 385 q 293 287 264 318 q 367 256 322 256 q 446 287 411 256 q 486 363 481 318 m 622 531 l 613 514 q 643 439 633 478 q 649 360 653 400 q 606 236 642 297 q 595 219 600 228 q 583 203 590 211 l 563 165 l 564 167 l 557 156 l 553 149 q 444 39 511 78 q 299 0 378 0 q 163 41 224 0 q 75 149 103 82 q 60 209 64 179 q 58 269 56 239 q 93 376 64 325 l 121 428 q 125 436 121 432 q 95 509 103 471 q 92 586 88 547 q 104 642 94 614 q 129 697 114 669 l 133 706 l 154 743 q 165 770 160 757 q 181 797 171 783 q 292 907 224 865 q 438 949 361 949 q 576 908 517 949 q 665 797 636 868 q 682 676 688 739 q 624 533 674 600 l 622 531 m 576 517 l 590 532 q 651 656 638 589 q 639 786 664 724 q 559 885 613 849 q 435 921 506 921 q 303 885 364 921 q 204 786 242 849 q 164 656 165 724 q 200 532 163 589 l 208 517 l 197 503 q 135 379 149 446 q 147 249 122 313 q 226 149 172 185 q 350 114 279 114 q 482 149 421 114 q 582 249 543 185 q 622 379 621 313 q 588 503 624 446 l 576 517 m 383 433 q 435 411 415 433 q 453 357 456 389 q 424 303 449 325 q 368 281 400 281 q 316 303 336 281 q 300 357 296 325 q 327 411 303 389 q 383 433 351 433 m 339 321 q 364 310 350 310 q 353 317 358 314 q 339 321 347 319 m 418 754 q 469 732 450 754 q 486 678 489 710 q 458 623 483 646 q 401 600 433 600 q 350 623 369 600 q 333 678 331 646 q 361 732 336 710 q 418 754 386 754 m 372 640 q 397 629 386 631 q 372 640 390 638 z "},"9":{"ha":642,"x_min":33,"x_max":685,"o":"m 189 367 l 169 172 l 549 172 l 554 225 l 385 225 l 364 225 l 229 225 q 235 296 232 261 q 243 367 238 331 q 274 433 250 403 q 335 479 299 464 q 369 488 351 486 q 406 492 386 490 q 476 510 443 493 q 540 552 515 528 q 582 613 564 576 q 601 683 599 647 q 592 752 603 719 q 559 810 582 785 q 503 850 536 835 q 433 864 469 864 q 363 851 397 864 q 299 815 328 839 q 249 757 269 790 l 313 757 q 378 804 343 793 q 446 809 414 815 q 503 782 478 803 q 541 731 529 761 q 547 666 553 701 q 510 596 540 631 q 465 560 488 572 q 414 546 443 549 q 360 540 386 543 q 307 524 333 536 q 228 458 260 500 q 189 367 196 415 m 583 251 l 571 144 l 139 144 l 163 368 q 194 453 169 413 q 258 524 219 494 q 351 565 303 556 q 402 572 378 572 q 453 583 426 571 q 494 617 478 596 q 516 661 510 638 q 518 708 522 685 q 497 751 514 732 q 457 778 481 771 q 409 783 433 786 q 362 767 385 781 q 324 731 339 753 l 208 731 q 249 801 222 769 q 308 853 275 832 q 381 884 342 875 q 460 889 419 893 q 531 867 499 885 q 587 820 564 849 q 621 756 610 792 q 628 681 632 721 q 606 605 624 640 q 562 540 589 569 q 499 492 535 511 q 422 467 463 472 q 385 464 403 464 q 349 457 368 464 q 285 403 306 442 q 274 371 278 392 q 267 327 269 350 q 263 283 264 304 q 260 251 261 263 l 367 251 l 388 251 l 583 251 m 372 322 q 361 321 367 321 q 349 321 356 321 q 336 321 342 321 q 324 318 331 321 q 322 317 322 318 l 322 313 l 322 307 l 643 307 l 619 86 l 613 86 l 567 0 l 33 0 l 63 278 q 74 328 65 303 q 96 376 83 353 l 122 424 q 144 472 131 447 q 178 518 158 496 q 215 556 194 539 q 257 586 235 572 l 93 586 q 133 704 106 657 l 163 754 q 202 829 179 800 q 246 875 225 858 q 340 928 289 910 q 442 947 390 947 q 572 913 515 947 q 660 814 628 879 q 680 747 675 782 q 682 676 685 713 q 662 599 678 636 q 619 526 646 561 l 592 475 q 565 435 581 454 q 533 399 550 417 q 456 347 494 365 q 372 322 418 329 m 296 313 q 303 362 299 338 q 319 401 307 386 q 362 430 340 425 q 400 435 383 435 q 409 435 404 435 q 419 436 414 435 q 498 458 463 442 q 567 506 533 474 q 619 571 599 535 q 649 646 640 607 q 654 724 658 685 q 633 799 650 763 q 555 888 606 857 q 439 919 504 919 q 346 903 392 919 q 263 856 300 886 q 209 794 236 832 q 171 699 182 757 l 339 699 q 372 740 350 726 q 418 753 394 753 q 475 728 453 753 q 486 672 492 704 q 457 620 481 640 q 399 600 433 600 q 322 586 357 597 q 196 501 246 560 q 156 437 171 471 q 135 367 142 403 l 133 346 l 108 114 l 594 114 l 613 279 l 293 279 l 296 304 l 296 313 m 367 639 q 343 633 356 639 q 321 617 331 628 l 319 614 q 400 628 360 626 q 367 639 386 639 m 357 682 l 363 689 q 357 682 357 685 q 356 679 356 681 l 357 682 z "},"\u0000":{"ha":0,"x_min":0,"x_max":0,"o":""},"\r":{"ha":374,"x_min":0,"x_max":0,"o":""}," ":{"ha":374,"x_min":0,"x_max":0,"o":""},"D":{"ha":642,"x_min":31,"x_max":685,"o":"m 626 681 l 593 357 q 566 273 588 313 q 513 204 544 233 q 439 158 481 175 q 353 140 397 140 l 299 140 l 138 140 l 217 897 l 325 897 l 378 897 l 432 897 q 515 880 476 897 q 579 833 553 863 q 618 765 606 804 q 626 681 631 725 m 565 357 l 599 681 q 592 754 603 719 q 558 815 581 789 q 501 855 535 840 q 429 869 468 869 l 375 869 l 322 869 l 240 869 l 167 167 l 301 167 l 329 167 l 356 167 q 431 181 394 167 q 496 222 468 196 q 542 283 524 249 q 565 357 561 317 m 546 681 l 513 357 q 496 304 510 329 q 462 260 482 279 q 415 231 442 242 q 361 221 389 221 l 226 221 l 247 411 l 281 735 l 289 815 l 424 815 q 475 805 451 815 q 515 776 499 794 q 540 733 532 758 q 546 681 549 708 m 485 357 l 518 681 q 494 757 524 725 q 421 789 465 789 l 314 789 l 308 735 l 275 411 l 257 249 l 364 249 q 407 257 386 249 q 444 280 428 265 q 472 315 461 294 q 485 357 482 335 m 556 156 q 448 43 517 86 q 297 0 379 0 l 31 0 l 119 854 l 164 935 l 165 947 l 436 947 q 540 926 493 947 q 620 869 588 906 q 669 783 653 832 q 679 676 685 733 l 646 357 q 581 200 635 267 l 563 168 q 560 163 561 165 q 556 156 558 160 m 349 113 q 445 132 399 113 q 528 185 492 151 q 588 263 564 218 q 618 357 613 307 l 651 676 q 642 771 657 726 q 598 849 628 815 q 526 901 568 882 q 433 919 483 919 l 190 919 l 106 113 l 349 113 m 461 444 q 456 400 458 422 q 451 354 454 378 q 431 308 449 328 q 389 282 413 289 q 353 278 369 278 l 333 278 q 323 279 326 279 q 314 279 319 279 l 290 279 l 339 750 q 381 752 351 751 q 440 740 410 753 q 467 720 458 733 q 480 692 476 707 q 483 661 483 676 q 482 636 483 646 q 481 625 481 632 l 467 490 l 461 444 m 388 310 q 401 442 396 382 q 410 541 407 493 q 414 607 414 589 q 405 631 414 624 q 385 640 396 638 q 356 642 371 643 l 321 307 q 331 307 325 307 q 340 306 338 307 l 356 306 q 369 306 363 306 q 383 308 376 307 l 388 310 z "},"I":{"ha":342,"x_min":43,"x_max":400,"o":"m 338 893 l 260 151 l 151 151 l 229 893 l 338 893 l 338 893 m 236 178 l 308 867 l 254 867 l 182 178 l 236 178 l 236 178 m 303 86 l 257 0 l 43 0 l 132 856 l 176 936 l 178 949 l 400 949 l 310 86 l 303 86 m 203 921 l 118 114 l 285 114 l 369 921 l 203 921 z "},"H":{"ha":642,"x_min":32,"x_max":708,"o":"m 650 897 l 571 140 l 463 140 l 497 465 l 281 465 l 246 140 l 138 140 l 217 897 l 325 897 l 292 574 l 508 574 l 542 897 l 650 897 l 650 897 m 546 168 l 619 871 l 565 871 l 532 546 l 263 546 l 296 871 l 242 871 l 168 168 l 222 168 l 257 492 l 526 492 l 492 168 l 546 168 l 546 168 m 292 86 l 246 0 l 32 0 l 121 854 l 165 935 l 167 947 l 389 947 l 356 628 l 417 628 l 440 854 l 486 935 l 488 947 l 708 947 l 618 86 l 613 86 l 567 0 l 351 0 l 385 321 l 324 321 l 299 86 l 292 86 m 192 919 l 107 114 l 274 114 l 307 433 l 461 433 l 428 114 l 593 114 l 678 919 l 513 919 l 479 600 l 325 600 l 358 919 l 192 919 z "},"F":{"ha":642,"x_min":33,"x_max":710,"o":"m 617 571 l 604 463 l 279 463 l 246 138 l 138 138 l 217 894 l 325 894 l 379 894 l 650 894 l 639 786 l 314 786 l 292 571 l 617 571 l 617 571 m 579 489 l 586 543 l 263 543 l 290 814 l 614 814 l 619 868 l 242 868 l 168 165 l 222 165 l 256 489 l 579 489 l 579 489 m 293 85 l 247 0 l 33 0 l 122 854 l 167 935 l 168 947 l 710 947 l 686 725 l 681 725 l 633 640 l 358 640 l 357 628 l 676 628 l 653 406 l 647 406 l 600 319 l 325 319 l 300 85 l 293 85 m 193 919 l 108 113 l 275 113 l 308 433 l 628 433 l 646 600 l 326 600 l 342 753 l 661 753 l 679 919 l 193 919 z "},"R":{"ha":642,"x_min":35,"x_max":688,"o":"m 590 333 q 580 235 585 285 q 569 136 575 185 l 463 136 q 469 197 465 167 q 475 260 472 228 q 478 284 476 267 q 482 321 481 301 q 484 358 483 340 q 483 382 485 375 q 457 433 478 413 q 404 458 436 454 q 344 461 375 463 q 283 460 314 460 l 250 136 l 143 136 l 222 892 l 404 892 q 492 883 451 892 q 567 840 532 875 q 615 768 599 810 q 626 681 631 726 q 598 590 622 628 q 542 514 574 553 q 568 469 557 489 q 585 431 579 450 q 592 388 590 411 q 590 333 593 365 m 546 163 q 556 256 551 210 q 565 349 560 301 q 564 397 568 375 q 551 439 560 419 q 532 476 543 458 q 508 514 521 494 q 563 581 538 547 q 596 660 589 614 q 595 742 606 703 q 557 811 585 782 q 490 855 525 844 q 411 865 456 865 l 246 865 l 172 163 l 226 163 l 260 486 l 392 486 q 453 471 425 486 q 497 426 482 456 q 512 363 515 394 q 506 297 508 331 q 499 229 503 263 q 492 163 494 196 l 546 163 m 546 675 q 510 594 540 631 q 436 546 481 558 q 402 542 426 543 q 350 540 378 540 q 298 540 322 540 q 265 540 274 540 l 294 811 q 327 811 303 811 q 378 811 351 811 q 430 810 406 811 q 463 806 454 808 q 527 757 504 793 q 546 675 550 721 m 432 572 q 492 611 468 583 q 519 675 515 639 q 504 740 522 711 q 453 779 486 768 q 427 782 446 781 q 386 783 408 783 q 344 783 364 783 q 318 783 325 783 l 294 568 q 321 568 301 568 q 363 568 340 568 q 404 569 385 568 q 432 572 424 569 m 440 751 q 479 723 465 743 q 490 676 493 703 q 469 631 488 651 q 425 603 451 610 q 392 599 410 599 q 371 600 376 599 l 351 600 l 329 600 l 344 753 l 367 753 q 376 753 371 753 q 388 754 381 753 l 408 754 q 426 753 418 754 q 440 751 433 753 m 401 626 q 392 633 397 629 q 382 639 388 636 q 361 642 368 642 l 360 628 l 379 628 q 394 626 386 626 l 401 626 m 356 0 l 378 213 q 381 265 381 240 q 374 300 382 289 q 352 315 365 311 q 328 321 339 319 l 303 86 l 296 86 l 250 0 l 35 0 l 124 854 l 168 935 l 169 947 l 397 947 q 469 944 435 947 q 533 930 503 940 q 591 899 564 919 q 642 844 618 879 q 678 764 668 808 q 683 676 688 719 q 664 598 679 636 q 621 525 649 560 l 614 514 q 649 415 646 464 q 644 308 651 367 l 621 86 l 615 86 l 568 0 l 356 0 m 365 435 q 407 429 385 435 q 444 404 429 424 q 454 361 456 389 q 450 303 453 333 l 450 292 l 431 114 l 596 114 l 617 308 q 620 410 622 364 q 590 503 618 457 l 581 517 l 593 531 q 656 678 649 597 q 619 826 664 760 q 574 878 599 860 q 520 906 549 896 q 460 917 492 915 q 394 919 429 919 l 364 919 l 332 919 l 194 919 l 110 114 l 278 114 l 311 433 l 333 433 q 346 435 340 433 l 365 435 z "},"B":{"ha":642,"x_min":36,"x_max":690,"o":"m 253 144 l 147 144 l 226 892 l 332 892 q 410 893 372 892 q 482 888 447 894 q 547 861 517 881 q 601 801 576 842 q 628 732 624 767 q 625 656 633 697 q 594 581 615 613 q 546 518 572 550 q 581 454 565 486 q 596 381 596 422 q 583 303 596 338 q 542 233 571 268 q 474 174 508 193 q 404 148 440 154 q 331 143 368 142 q 253 144 293 144 m 594 643 q 603 715 606 683 q 582 782 600 747 q 538 834 563 815 q 474 861 513 853 q 401 866 438 868 q 329 864 365 864 l 250 864 l 176 171 l 256 171 q 328 169 292 171 q 401 175 364 168 q 471 201 442 183 q 526 254 500 219 q 561 320 551 288 q 568 393 571 353 q 549 460 565 432 q 513 518 532 489 q 560 576 538 547 q 594 643 583 604 m 467 806 q 530 758 507 793 q 549 678 553 722 q 513 598 543 633 q 440 550 483 563 q 406 546 431 547 q 355 544 382 544 q 303 544 328 544 q 269 544 279 544 l 297 811 q 331 811 307 811 q 383 811 356 811 q 434 810 410 811 q 467 806 458 808 m 435 575 q 494 614 471 586 q 522 678 518 642 q 508 742 525 714 q 457 781 490 769 q 431 783 450 782 q 389 785 411 785 q 347 785 367 785 q 321 785 328 785 l 299 571 q 325 571 306 571 q 367 571 344 571 q 408 572 389 571 q 435 575 428 572 m 433 486 q 497 438 474 474 q 515 357 519 401 q 480 277 510 313 q 407 229 450 242 q 372 225 397 226 q 320 224 347 224 q 269 224 293 224 q 235 224 244 224 l 264 492 q 298 492 274 492 q 349 492 322 492 q 401 490 376 492 q 433 486 425 489 m 401 256 q 461 293 438 265 q 489 357 485 321 q 474 422 492 393 q 422 460 456 450 q 397 463 415 461 q 356 464 378 464 q 314 464 333 464 q 288 464 294 464 l 265 251 q 292 251 272 251 q 333 251 311 251 q 374 252 354 251 q 401 256 393 253 m 557 149 q 446 41 514 82 q 303 0 378 0 l 36 0 l 125 854 l 169 935 l 171 947 l 442 947 q 578 907 518 947 q 668 797 639 867 q 685 675 690 739 q 622 526 676 600 l 614 514 q 651 358 660 440 q 608 238 643 294 q 600 222 606 229 q 589 208 594 215 l 557 149 m 111 114 l 354 114 q 486 149 425 114 q 585 249 547 185 q 626 379 625 313 q 590 503 626 446 l 582 517 l 593 531 q 655 655 642 588 q 642 786 668 722 q 563 885 617 850 q 439 919 510 919 l 196 919 l 111 114 m 493 676 q 465 622 490 644 q 408 600 440 600 l 332 600 l 349 754 l 425 754 q 476 731 457 754 q 493 676 496 708 m 406 628 q 372 640 390 640 l 364 640 l 363 628 l 406 628 m 460 357 q 431 302 456 325 q 375 279 407 279 l 299 279 l 314 433 l 390 433 q 442 411 422 433 q 460 357 463 389 m 372 307 q 339 319 357 319 l 331 319 l 329 307 l 372 307 z "},"E":{"ha":642,"x_min":31,"x_max":708,"o":"m 583 253 l 572 146 l 301 146 l 247 146 l 139 146 l 219 890 l 325 890 l 379 890 l 650 890 l 639 785 l 311 785 l 289 571 l 617 571 l 606 464 l 278 464 l 256 253 l 583 253 l 583 253 m 547 172 l 553 225 l 226 225 l 254 490 l 581 490 l 586 543 l 260 543 l 288 811 l 614 811 l 619 864 l 376 864 l 322 864 l 243 864 l 171 172 l 250 172 l 304 172 l 547 172 l 547 172 m 611 85 l 565 0 l 31 0 l 119 854 l 165 935 l 167 947 l 708 947 l 685 725 l 678 725 l 632 639 l 356 639 l 354 626 l 675 626 l 651 406 l 644 406 l 599 319 l 322 319 l 321 307 l 642 307 l 618 85 l 611 85 m 190 919 l 106 113 l 593 113 l 611 279 l 290 279 l 306 433 l 626 433 l 644 599 l 324 599 l 339 753 l 660 753 l 678 919 l 190 919 z "},"P":{"ha":642,"x_min":38,"x_max":697,"o":"m 632 731 q 613 608 640 668 q 531 507 586 547 q 469 474 499 483 q 409 461 439 464 q 349 460 379 458 q 286 461 318 461 l 253 138 l 144 138 l 224 893 q 269 893 232 893 q 349 893 307 893 q 428 892 392 893 q 474 890 465 892 q 578 836 536 879 q 632 731 621 793 m 489 511 q 577 592 544 539 q 607 704 610 646 q 569 806 604 763 q 476 863 535 850 q 433 865 467 864 q 363 867 400 867 q 292 867 325 867 q 249 867 258 867 l 175 164 l 229 164 l 263 489 q 319 488 290 488 q 376 488 347 488 q 433 492 406 488 q 489 511 461 496 m 551 678 q 516 596 546 632 q 442 547 486 560 q 407 543 432 544 q 354 542 382 542 q 301 542 326 542 q 268 542 276 542 l 297 813 q 331 813 306 813 q 383 813 356 813 q 435 811 411 813 q 469 807 460 810 q 533 758 510 794 q 551 678 556 722 m 436 574 q 497 613 472 585 q 525 678 521 642 q 510 742 528 714 q 458 781 492 771 q 431 783 451 782 q 390 785 411 785 q 348 785 368 785 q 321 785 328 785 l 299 569 q 325 569 306 569 q 367 569 344 569 q 408 570 389 569 q 436 574 428 571 m 493 676 q 465 622 490 644 q 407 600 439 600 l 331 600 l 347 754 l 424 754 q 476 731 456 754 q 493 676 496 708 m 404 628 q 371 640 392 640 l 363 640 l 361 628 l 404 628 m 251 0 l 38 0 l 126 854 l 171 935 l 172 949 l 443 949 q 544 928 499 949 q 626 868 590 907 q 686 676 697 788 q 664 594 681 633 q 621 521 647 554 l 604 490 q 597 478 599 482 q 489 364 560 407 q 338 321 418 321 l 329 321 l 304 86 l 297 86 l 251 0 m 113 114 l 279 114 l 313 433 l 389 433 q 485 452 439 433 q 568 504 532 471 q 628 582 604 538 q 658 676 653 626 q 650 769 664 725 q 607 850 636 814 q 440 919 540 919 l 197 919 l 113 114 z "},"O":{"ha":642,"x_min":54,"x_max":683,"o":"m 572 832 q 609 780 597 807 q 624 725 621 753 q 625 667 628 697 q 618 604 622 636 q 606 481 611 542 q 593 357 600 419 q 542 236 585 288 q 442 161 500 185 q 322 145 385 138 q 213 201 260 153 q 176 253 188 226 q 161 308 164 281 q 160 367 158 336 q 167 429 163 397 q 180 553 174 492 q 193 676 186 614 q 243 797 200 746 q 344 871 286 847 q 464 887 401 894 q 572 832 526 879 m 589 583 q 596 640 592 613 q 600 694 600 667 q 592 747 600 721 q 565 799 585 772 q 506 847 540 831 q 435 863 472 863 q 363 851 399 864 q 297 813 326 838 q 246 754 267 789 q 221 676 225 719 q 208 563 214 619 q 197 450 203 507 q 190 394 194 421 q 185 340 185 367 q 192 286 185 313 q 219 235 200 260 q 313 175 257 186 q 423 183 369 164 q 517 247 476 201 q 565 357 558 292 q 576 469 571 414 q 589 583 582 525 m 525 492 q 521 455 524 481 q 515 401 518 429 q 508 347 513 372 q 497 308 503 321 q 426 238 471 257 q 338 226 381 218 q 265 268 294 235 q 242 357 235 301 q 251 449 246 403 q 260 542 256 494 q 264 578 261 553 q 270 633 267 604 q 278 687 274 661 q 289 725 282 713 q 360 796 315 776 q 449 807 406 815 q 521 765 492 799 q 544 676 550 732 q 534 584 539 631 q 525 492 529 538 m 483 349 q 493 431 490 390 q 500 513 496 472 q 509 594 504 553 q 518 676 514 636 q 494 754 524 728 q 424 782 464 781 q 348 759 385 783 q 301 683 311 735 q 292 602 294 643 q 285 521 289 561 q 276 438 281 479 q 268 357 272 397 q 277 299 264 322 q 312 264 290 276 q 361 250 333 251 q 414 260 389 249 q 458 292 439 271 q 483 349 478 314 m 299 0 q 164 38 224 0 q 75 142 104 75 q 59 205 64 172 q 60 282 54 238 l 90 571 q 105 642 94 611 q 131 701 115 672 l 135 711 l 136 713 l 135 713 l 153 742 l 154 746 q 167 774 160 761 q 181 801 174 788 q 293 908 225 868 q 438 947 361 947 q 573 908 513 947 q 663 801 633 868 q 678 737 674 769 q 678 660 683 704 l 649 371 q 632 293 643 326 q 603 231 621 260 l 586 207 l 563 165 l 563 167 l 561 165 l 563 165 l 549 142 q 441 38 508 75 q 299 0 374 0 m 135 371 q 149 243 126 294 q 227 147 174 182 q 350 113 281 113 q 479 147 418 113 q 579 243 540 182 q 606 301 596 271 q 621 371 617 331 l 650 660 q 651 731 656 700 q 636 790 647 763 q 556 885 610 850 q 435 919 503 919 q 304 885 365 919 q 206 790 243 850 q 178 731 188 763 q 164 660 169 700 l 135 371 m 368 278 q 315 301 336 278 q 297 356 294 324 l 331 661 q 337 698 332 679 q 364 735 342 717 q 417 753 386 753 q 469 731 449 753 q 486 676 489 708 l 454 371 q 447 335 451 354 q 419 297 442 315 q 395 283 408 289 q 368 278 382 278 m 364 690 l 374 708 l 372 707 l 364 692 l 364 690 m 325 356 q 337 321 322 336 q 371 306 351 306 q 383 307 378 306 l 413 588 q 401 624 415 608 q 365 640 386 640 q 360 640 363 640 q 356 639 358 639 l 325 356 z "},"A":{"ha":642,"x_min":33,"x_max":682,"o":"m 610 790 q 628 738 624 764 q 631 685 632 711 q 626 632 631 658 q 619 578 622 606 q 597 360 608 468 q 574 142 585 251 l 465 142 l 488 356 l 271 356 l 249 142 l 140 142 q 163 360 151 251 q 186 578 175 468 q 191 632 189 606 q 198 685 193 658 q 213 737 203 711 q 242 789 222 763 q 328 865 276 838 q 436 892 379 892 q 539 865 493 892 q 610 790 585 838 m 592 569 q 597 617 593 592 q 601 669 600 643 q 601 721 603 696 q 590 767 599 746 q 528 839 569 813 q 433 865 486 865 q 333 839 381 865 q 258 767 286 813 q 235 720 243 746 q 224 669 228 694 q 217 617 219 643 q 214 569 215 592 q 192 369 203 469 q 171 168 182 269 l 225 168 l 247 382 l 517 382 l 494 168 l 549 168 q 570 369 560 268 q 592 569 581 469 m 547 663 q 535 549 540 604 q 524 436 529 493 l 254 436 q 265 549 260 493 q 278 663 271 604 q 323 767 285 724 q 428 811 361 811 q 485 799 461 811 q 524 767 508 788 q 544 720 539 747 q 547 663 550 693 m 499 463 l 519 654 q 522 701 522 679 q 506 744 521 724 q 472 775 490 765 q 425 785 453 785 q 338 744 374 785 q 312 701 318 724 q 303 654 306 679 l 282 463 l 499 463 m 131 699 q 133 703 131 700 l 131 699 m 332 651 q 334 678 332 664 q 344 707 336 692 q 418 753 368 753 q 485 707 467 753 q 489 678 490 692 q 486 651 488 664 l 485 638 l 469 492 l 315 492 l 331 638 l 332 651 m 346 519 l 407 519 l 411 563 q 415 585 414 574 q 414 608 417 597 q 367 639 400 639 l 358 639 l 346 519 m 247 0 l 33 0 l 82 464 q 86 510 83 485 q 92 560 89 536 q 98 605 96 585 q 103 633 100 625 q 115 665 107 649 q 129 696 122 681 l 131 699 l 153 739 q 204 828 171 788 q 282 899 238 869 q 439 947 354 947 q 565 916 508 947 q 653 826 621 885 q 681 724 681 774 q 675 621 682 674 l 619 85 l 614 85 l 568 0 l 353 0 l 375 213 l 314 213 l 300 85 l 293 85 l 247 0 m 176 719 q 170 685 174 710 q 163 632 167 661 q 157 575 160 603 q 153 531 154 547 l 150 513 l 108 113 l 275 113 l 297 325 l 451 325 l 429 113 l 594 113 l 647 621 q 653 717 653 669 q 628 811 653 764 q 549 891 600 863 q 436 919 499 919 q 294 876 361 919 q 221 808 251 849 q 176 719 190 768 z "},"U":{"ha":642,"x_min":56,"x_max":710,"o":"m 607 464 q 602 409 604 436 q 596 356 600 382 q 581 303 592 329 q 551 250 571 276 q 467 174 518 201 q 358 147 415 147 q 256 174 301 147 q 183 250 210 201 q 167 303 171 276 q 163 356 163 329 q 168 409 164 382 q 175 464 172 436 q 197 678 186 574 q 219 894 208 783 l 328 894 l 307 688 l 300 633 q 290 537 294 585 q 281 440 286 489 q 277 413 279 429 q 274 379 275 397 q 274 345 274 361 q 278 318 274 329 q 313 272 289 289 q 369 254 338 254 q 430 272 401 254 q 475 318 458 289 q 485 345 481 329 q 491 379 489 361 q 494 413 493 397 q 497 440 496 429 q 508 547 503 493 q 519 654 514 601 l 524 688 l 544 894 l 651 894 q 629 678 640 783 q 607 464 618 574 m 536 272 q 558 319 550 293 q 571 372 567 344 q 576 424 575 399 q 581 471 578 450 q 601 669 592 574 q 622 868 611 765 l 568 868 l 550 688 l 546 654 q 533 537 539 596 q 521 419 528 478 q 514 353 518 385 q 485 289 510 321 q 433 244 464 261 q 367 228 401 228 q 303 244 332 228 q 258 289 275 261 q 245 353 242 321 q 251 419 249 385 q 263 526 258 472 q 274 633 268 579 l 281 688 l 299 868 l 244 868 q 224 669 233 765 q 203 471 214 572 q 197 424 200 450 q 192 372 193 399 q 192 319 190 344 q 204 272 194 293 q 266 200 224 226 q 361 174 308 174 q 460 200 414 174 q 536 272 506 226 m 300 0 q 165 38 225 0 q 76 142 106 75 q 60 204 65 171 q 61 282 56 238 l 121 854 l 167 935 l 168 947 l 390 947 l 331 372 q 331 338 328 351 q 342 317 335 325 q 357 308 349 310 q 372 306 365 306 q 385 307 379 306 l 442 854 l 486 935 l 488 947 l 710 947 l 650 371 q 633 293 644 328 q 603 229 622 258 l 586 208 l 564 167 q 561 160 564 165 l 549 142 q 499 87 528 113 q 438 42 471 61 q 370 11 406 22 q 300 0 335 0 m 136 371 q 150 243 128 294 q 230 147 176 182 q 351 113 283 113 q 481 147 419 113 q 579 243 542 182 q 608 301 599 271 q 622 371 618 331 l 679 919 l 513 919 l 456 372 q 442 323 451 342 q 419 294 432 304 q 393 281 407 285 q 369 278 379 278 q 345 281 358 278 q 322 294 332 285 q 305 323 311 304 q 303 372 299 342 l 360 919 l 193 919 l 136 371 z "},":":{"ha":301,"x_min":26,"x_max":374,"o":"m 197 251 q 232 236 218 251 q 243 199 246 221 q 223 160 240 175 q 185 144 206 144 q 149 160 163 144 q 139 199 136 175 q 158 236 142 221 q 197 251 175 251 m 217 199 q 212 217 218 210 q 194 225 206 225 q 175 217 183 225 q 165 199 167 210 q 169 179 163 188 q 188 171 176 171 q 206 179 199 171 q 217 199 214 188 m 236 71 l 236 69 l 236 71 m 46 150 q 49 157 46 154 l 46 150 m 200 307 q 276 275 247 307 q 300 196 306 243 q 267 125 296 156 l 235 68 q 236 69 235 69 l 232 64 l 235 67 q 232 65 233 65 l 232 64 q 188 18 215 36 q 128 0 161 0 q 56 31 85 0 q 32 107 26 63 q 46 150 35 133 l 49 158 l 49 157 l 50 161 l 82 217 q 126 282 93 257 q 200 307 160 307 m 281 150 l 281 149 l 281 150 m 179 113 q 242 137 215 113 q 272 196 269 161 q 255 256 276 232 q 197 279 233 279 q 137 256 164 279 q 106 196 110 232 q 124 137 103 161 q 179 113 146 113 m 264 892 q 299 876 285 892 q 310 839 313 861 q 290 800 307 815 q 253 785 274 785 q 217 800 231 785 q 206 839 203 815 q 225 876 208 861 q 264 892 242 892 m 283 839 q 278 858 285 850 q 261 865 272 865 q 242 858 250 865 q 232 839 233 850 q 238 819 231 828 q 256 811 244 811 q 274 819 267 811 q 283 839 282 828 m 303 711 l 303 710 l 303 711 m 113 790 l 117 797 q 113 790 115 796 m 267 947 q 344 915 314 947 q 368 836 374 883 q 333 765 364 799 l 301 708 q 303 710 301 710 l 300 704 l 301 707 q 300 704 300 706 q 256 658 283 676 q 194 640 228 640 q 123 672 151 640 q 99 747 94 703 q 113 790 101 774 l 117 799 l 117 797 l 117 801 l 149 857 q 193 922 160 897 q 267 947 226 947 m 347 790 l 347 789 l 347 790 m 246 753 q 309 777 282 753 q 340 836 336 801 q 322 896 343 872 q 264 919 300 919 q 203 896 231 919 q 174 836 176 872 q 191 777 169 801 q 246 753 213 753 z "},";":{"ha":301,"x_min":19,"x_max":374,"o":"m 264 892 q 299 876 285 892 q 310 839 313 861 q 290 800 307 815 q 253 785 274 785 q 217 800 231 785 q 206 839 203 815 q 225 876 208 861 q 264 892 242 892 m 283 839 q 278 858 285 850 q 261 865 272 865 q 242 858 250 865 q 232 839 233 850 q 238 819 231 828 q 256 811 244 811 q 274 819 267 811 q 283 839 282 828 m 303 711 l 303 710 l 303 711 m 113 790 l 117 797 q 113 790 115 796 m 267 947 q 344 915 314 947 q 368 836 374 883 q 333 765 364 799 l 301 708 q 303 710 301 710 l 300 704 l 301 707 q 300 704 300 706 q 256 658 283 676 q 194 640 228 640 q 123 672 151 640 q 99 747 94 703 q 113 790 101 774 l 117 799 l 117 797 l 117 801 l 149 857 q 193 922 160 897 q 267 947 226 947 m 347 790 l 347 789 l 347 790 m 246 753 q 309 777 282 753 q 340 836 336 801 q 322 896 343 872 q 264 919 300 919 q 203 896 231 919 q 174 836 176 872 q 191 777 169 801 q 246 753 213 753 m 243 204 q 217 115 239 153 q 158 40 196 76 q 156 58 156 51 q 151 74 153 69 q 142 102 147 89 q 135 131 138 115 q 133 149 133 140 q 132 167 132 158 l 132 181 q 133 190 133 185 q 135 199 133 194 l 135 201 q 153 240 138 224 q 193 257 169 256 q 231 242 217 257 q 243 204 246 226 m 174 97 q 217 204 211 147 q 210 224 218 215 q 190 231 201 232 q 169 222 175 229 q 163 200 164 214 q 160 196 163 199 q 159 186 160 190 q 160 176 158 182 q 159 164 158 169 q 161 151 160 158 q 165 123 161 136 q 174 97 169 110 m 43 153 q 44 157 43 156 l 43 153 m 297 206 l 299 201 l 297 196 q 277 117 293 154 q 236 44 261 79 l 214 3 l 215 8 l 213 1 l 214 3 l 207 -10 q 93 -133 169 -76 l 96 -132 q 85 -140 88 -139 q 75 -140 82 -140 q 63 -136 68 -140 q 53 -127 57 -133 q 51 -110 50 -121 q 52 -84 51 -99 q 51 -58 53 -69 q 48 -47 51 -56 q 42 -26 44 -37 l 35 -6 q 31 110 19 49 q 34 131 32 121 q 43 153 36 142 l 46 158 q 44 157 44 158 l 47 160 l 50 163 l 47 161 l 79 221 q 124 284 90 260 q 199 308 158 308 q 239 300 222 307 q 272 275 256 293 q 285 258 279 265 q 292 244 290 251 l 299 215 l 297 206 m 271 201 q 269 204 271 201 l 269 206 l 271 213 l 267 229 q 251 256 263 244 q 227 274 239 269 q 196 281 215 279 q 134 256 161 281 q 103 196 107 232 l 103 194 q 100 144 97 168 q 110 93 103 119 l 114 72 q 119 56 117 64 q 124 38 121 47 q 126 6 126 22 q 125 -24 126 -10 q 126 -26 125 -26 l 128 -26 q 131 -25 129 -26 q 269 196 257 72 l 271 199 l 271 200 l 271 201 z "},".":{"ha":303,"x_min":26,"x_max":306,"o":"m 197 251 q 232 236 218 251 q 243 199 246 221 q 223 160 240 175 q 185 144 206 144 q 149 160 163 144 q 139 199 136 175 q 158 236 142 221 q 197 251 175 251 m 217 199 q 212 217 218 210 q 194 225 206 225 q 175 217 183 225 q 165 199 167 210 q 169 179 163 188 q 188 171 176 171 q 206 179 199 171 q 217 199 214 188 m 236 71 l 236 69 l 236 71 m 46 150 q 49 157 46 154 l 46 150 m 200 307 q 276 275 247 307 q 300 196 306 243 q 267 125 296 156 l 235 68 q 236 69 235 69 l 232 64 l 235 67 q 232 65 233 65 l 232 64 q 188 18 215 36 q 128 0 161 0 q 56 31 85 0 q 32 107 26 63 q 46 150 35 133 l 49 158 l 49 157 l 50 161 l 82 217 q 126 282 93 257 q 200 307 160 307 m 281 150 l 281 149 l 281 150 m 179 113 q 242 137 215 113 q 272 196 269 161 q 255 256 276 232 q 197 279 233 279 q 137 256 164 279 q 106 196 110 232 q 124 137 103 161 q 179 113 146 113 z "},",":{"ha":301,"x_min":19,"x_max":299,"o":"m 243 204 q 217 115 239 153 q 158 40 196 76 q 156 58 156 51 q 151 74 153 69 q 142 102 147 89 q 135 131 138 115 q 133 149 133 140 q 132 167 132 158 l 132 181 q 133 190 133 185 q 135 199 133 194 l 135 201 q 153 240 138 224 q 193 257 169 256 q 231 242 217 257 q 243 204 246 226 m 174 97 q 217 204 211 147 q 210 224 218 215 q 190 231 201 232 q 169 222 175 229 q 163 200 164 214 q 160 196 163 199 q 159 186 160 190 q 160 176 158 182 q 159 164 158 169 q 161 151 160 158 q 165 123 161 136 q 174 97 169 110 m 43 153 q 44 157 43 156 l 43 153 m 297 206 l 299 201 l 297 196 q 277 117 293 154 q 236 44 261 79 l 214 3 l 215 8 l 213 1 l 214 3 l 207 -10 q 93 -133 169 -76 l 96 -132 q 85 -140 88 -139 q 75 -140 82 -140 q 63 -136 68 -140 q 53 -127 57 -133 q 51 -110 50 -121 q 52 -84 51 -99 q 51 -58 53 -69 q 48 -47 51 -56 q 42 -26 44 -37 l 35 -6 q 31 110 19 49 q 34 131 32 121 q 43 153 36 142 l 46 158 q 44 157 44 158 l 47 160 l 50 163 l 47 161 l 79 221 q 124 284 90 260 q 199 308 158 308 q 239 300 222 307 q 272 275 256 293 q 285 258 279 265 q 292 244 290 251 l 299 215 l 297 206 m 271 201 q 269 204 271 201 l 269 206 l 271 213 l 267 229 q 251 256 263 244 q 227 274 239 269 q 196 281 215 279 q 134 256 161 281 q 103 196 107 232 l 103 194 q 100 144 97 168 q 110 93 103 119 l 114 72 q 119 56 117 64 q 124 38 121 47 q 126 6 126 22 q 125 -24 126 -10 q 126 -26 125 -26 l 128 -26 q 131 -25 129 -26 q 269 196 257 72 l 271 199 l 271 200 l 271 201 z "},"G":{"ha":642,"x_min":56,"x_max":681,"o":"m 600 456 q 594 400 597 428 q 589 344 592 372 q 540 238 578 286 q 444 167 503 190 q 331 147 389 142 q 229 186 274 153 q 165 273 176 225 q 161 383 154 321 q 172 497 167 442 q 185 610 178 553 q 191 667 188 639 q 202 720 194 694 q 224 771 210 746 q 265 821 239 796 q 372 881 314 867 q 483 881 431 894 q 574 828 535 867 q 622 728 613 789 l 507 728 q 460 772 490 760 q 399 780 431 785 q 340 753 367 775 q 303 694 313 731 q 299 671 301 690 q 294 630 296 651 q 290 589 292 608 q 288 565 288 569 l 275 436 q 271 408 274 425 q 267 372 268 390 q 266 338 265 354 q 272 308 267 321 q 314 264 286 279 q 378 253 342 249 q 438 280 411 257 q 476 335 465 303 q 481 359 478 340 q 485 399 483 378 q 490 440 488 421 q 493 464 492 458 l 367 464 l 378 569 l 613 569 q 606 513 610 542 q 600 456 603 485 m 561 344 q 574 444 571 394 q 582 543 576 493 l 396 543 l 390 490 l 524 490 l 515 415 q 511 378 513 396 q 506 340 510 360 q 468 273 496 303 q 401 232 440 243 q 326 231 363 221 q 265 268 289 240 q 245 301 251 285 q 238 335 239 318 q 240 371 238 353 q 243 408 242 389 q 251 483 247 446 q 260 557 256 519 q 262 587 260 565 q 267 632 264 608 q 273 677 269 656 q 279 707 276 699 q 325 772 293 747 q 393 805 357 797 q 465 800 429 813 q 524 754 501 788 l 586 754 q 526 831 567 804 q 438 860 486 857 q 340 841 389 863 q 257 774 292 819 q 230 726 239 750 q 217 678 221 701 q 211 630 213 654 q 207 581 210 606 q 197 482 201 532 q 188 383 192 432 q 190 285 181 328 q 244 208 200 243 q 335 173 283 178 q 435 190 386 168 q 519 253 485 211 q 561 344 553 294 m 672 674 l 649 628 l 674 628 l 646 357 q 624 276 640 314 q 581 204 607 238 l 556 157 q 448 44 517 88 q 297 0 379 0 q 217 13 258 0 q 118 76 158 32 q 63 181 78 121 q 56 239 56 210 q 60 303 57 268 l 86 551 q 96 616 90 588 q 115 675 101 644 q 120 687 118 682 q 125 699 122 692 l 153 747 l 163 767 q 240 872 189 828 q 354 936 290 917 q 397 945 376 943 q 438 947 417 947 q 534 926 489 947 q 612 867 579 904 q 663 781 644 831 q 679 674 681 731 l 672 674 m 643 600 l 351 600 l 333 433 l 458 433 l 451 357 q 424 303 447 325 q 369 279 400 281 l 367 279 q 315 300 336 279 q 296 351 294 321 q 301 408 297 379 q 307 464 304 436 q 310 490 310 478 q 314 517 311 503 q 316 544 315 531 q 318 569 317 557 q 323 626 321 597 q 331 683 325 654 q 361 733 336 713 q 417 754 386 754 l 419 754 q 460 738 443 753 q 482 700 478 724 l 651 700 q 636 786 653 746 q 590 856 619 826 q 521 902 561 885 q 435 919 481 919 q 360 910 394 919 q 257 851 303 892 q 188 757 211 811 q 169 702 175 729 q 161 642 164 675 l 135 392 q 131 332 132 360 q 138 278 131 304 q 188 182 150 222 q 278 125 225 142 q 313 116 294 118 q 350 114 331 114 q 446 133 400 114 q 528 185 492 153 q 589 263 565 218 q 618 357 613 307 l 643 600 m 338 319 q 371 307 350 307 q 382 310 374 307 l 383 319 l 338 319 z "},"J":{"ha":642,"x_min":54,"x_max":704,"o":"m 614 608 q 610 579 613 601 q 605 527 608 557 q 598 464 601 497 q 591 401 594 431 q 584 349 588 371 q 579 319 581 326 q 527 224 563 263 q 447 167 492 186 q 355 146 403 147 q 266 162 307 144 q 195 215 225 179 q 157 307 165 251 l 272 307 q 304 269 283 283 q 349 253 325 256 q 399 260 374 251 q 444 290 424 269 q 474 335 468 313 q 482 386 479 358 q 487 437 485 411 q 492 488 489 463 q 513 693 503 592 q 535 897 524 794 l 643 897 q 628 752 636 824 q 614 608 621 681 m 561 361 q 588 616 575 489 q 614 869 601 743 l 560 869 q 538 659 549 764 q 515 447 526 554 q 511 395 513 421 q 503 342 510 369 q 442 253 489 286 q 390 230 417 236 q 338 227 364 224 q 291 244 313 231 q 256 279 269 257 l 193 279 q 242 208 210 233 q 314 176 275 183 q 394 177 353 168 q 472 210 436 186 q 531 273 507 235 q 561 361 556 311 m 101 351 q 101 355 100 353 q 101 360 101 357 l 319 360 q 338 322 324 336 q 368 307 351 308 q 382 310 371 307 l 382 317 q 385 344 385 332 q 388 372 385 357 l 438 854 l 482 936 l 483 947 l 704 947 l 646 392 q 638 326 642 356 q 619 267 633 297 q 601 234 613 250 q 579 204 590 218 l 561 169 q 558 164 558 167 q 554 158 557 161 q 478 67 525 107 q 375 11 431 28 q 334 2 354 4 q 294 0 314 0 q 198 21 242 0 q 122 77 154 42 q 72 161 89 113 q 54 267 54 210 l 101 351 m 603 246 l 604 247 l 604 249 l 603 246 m 129 332 q 144 246 128 286 q 189 176 160 206 q 258 129 218 146 q 346 113 299 113 q 421 122 383 113 q 524 181 478 140 q 593 275 569 222 q 610 331 606 303 q 618 392 615 358 l 674 919 l 508 919 l 483 681 l 465 515 l 460 463 q 456 406 458 435 q 447 350 454 378 q 418 300 442 321 q 365 279 394 279 l 361 279 q 319 294 338 281 q 296 332 300 308 l 129 332 z "},"C":{"ha":642,"x_min":57,"x_max":681,"o":"m 625 732 l 510 732 q 474 770 497 757 q 423 784 450 783 q 369 772 396 785 q 324 735 342 760 q 301 683 304 708 q 296 629 299 657 q 290 574 293 601 q 285 519 288 547 q 279 465 282 492 q 274 411 276 439 q 267 358 271 383 q 279 306 264 332 q 316 268 292 281 q 367 256 340 256 q 421 269 394 256 q 465 308 447 282 l 581 308 q 525 222 563 258 q 442 167 488 186 q 346 149 396 149 q 253 175 296 150 q 187 239 211 199 q 160 328 163 279 q 162 364 160 336 q 167 424 164 392 q 174 483 171 456 q 178 519 176 511 q 182 556 179 528 q 188 616 185 585 q 194 676 192 647 q 200 713 197 704 q 246 801 213 761 q 325 864 279 840 q 424 890 374 889 q 516 873 474 892 q 588 818 558 854 q 625 732 617 782 m 526 758 l 589 758 q 543 823 574 797 q 474 858 513 849 q 392 860 435 868 q 311 826 350 853 q 251 763 274 800 q 221 685 228 726 q 212 602 215 643 q 204 519 208 561 q 195 438 200 479 q 186 356 190 396 q 199 276 183 313 q 247 214 215 239 q 321 180 281 188 q 402 181 361 172 q 479 216 443 190 q 539 282 515 242 l 476 282 q 423 242 453 256 q 363 229 393 229 q 305 242 332 229 q 261 281 278 254 q 242 337 242 308 q 246 397 242 365 q 252 459 249 429 q 258 519 256 489 q 265 581 261 551 q 271 642 268 611 q 280 702 274 674 q 311 758 286 731 q 363 798 333 785 q 424 811 393 811 q 481 798 454 811 q 526 758 508 785 m 557 167 q 447 46 517 92 q 299 0 378 0 q 258 3 279 0 q 218 13 238 7 q 119 76 160 32 q 64 181 79 121 q 58 240 57 211 q 64 304 60 268 l 89 554 q 98 617 93 588 q 117 676 103 646 l 125 692 l 153 746 l 163 767 q 242 871 189 825 q 354 936 294 917 q 438 950 396 950 q 535 928 490 950 q 613 869 581 907 q 663 781 644 832 q 681 674 681 731 l 674 674 l 628 588 l 415 588 q 364 642 404 639 q 359 642 361 642 q 354 642 357 643 l 354 636 q 350 603 351 619 q 349 571 349 588 l 336 463 q 332 431 333 447 q 329 400 331 415 q 326 376 328 390 q 325 353 325 363 q 340 322 326 335 q 372 310 353 310 q 404 324 389 310 q 431 363 419 339 l 649 363 q 623 284 640 322 q 582 214 606 246 l 557 167 m 279 125 q 315 117 297 121 q 350 114 332 114 q 441 131 397 114 q 520 178 485 149 q 581 249 556 208 q 615 335 606 289 l 447 335 q 417 297 438 311 q 371 282 396 283 l 367 282 q 317 302 338 282 q 297 351 297 322 q 302 408 299 381 q 310 464 306 436 l 315 518 l 321 571 q 325 627 324 599 q 332 683 326 656 q 363 735 339 714 q 417 756 388 756 l 421 756 q 463 740 446 754 q 486 701 481 725 l 654 701 q 638 788 654 747 q 592 858 621 828 q 522 905 563 888 q 435 922 482 922 q 361 910 399 922 q 258 853 304 893 q 188 758 213 813 q 170 703 175 731 q 163 643 165 675 l 136 393 q 132 333 133 361 q 138 278 131 306 q 189 183 151 224 q 279 125 226 143 z "},"K":{"ha":642,"x_min":39,"x_max":721,"o":"m 626 889 l 399 519 l 549 149 l 428 149 l 292 485 l 257 149 l 149 149 l 226 889 l 335 889 l 299 553 l 506 889 l 626 889 l 626 889 m 369 519 l 579 863 l 519 863 l 308 519 l 447 175 l 507 175 l 369 519 l 369 519 m 232 175 l 274 575 l 276 597 l 304 863 l 251 863 l 179 175 l 232 175 l 232 175 m 471 947 l 721 947 l 461 517 l 629 86 l 619 86 l 574 0 l 335 0 l 303 86 l 300 86 l 254 0 l 39 0 l 128 854 l 174 936 l 175 947 l 396 947 l 381 797 l 471 947 m 588 114 l 431 517 l 672 919 l 486 919 l 340 678 l 350 778 l 365 919 l 200 919 l 115 114 l 281 114 l 296 254 l 308 363 l 401 114 l 588 114 z "},"L":{"ha":563,"x_min":40,"x_max":568,"o":"m 508 251 l 497 146 l 149 146 l 154 199 l 165 304 l 226 886 l 335 886 l 268 251 l 508 251 l 508 251 m 474 172 l 479 225 l 239 225 l 306 860 l 251 860 l 179 172 l 474 172 l 474 172 m 539 85 l 490 0 l 40 0 l 129 854 l 174 936 l 175 947 l 397 947 l 331 307 l 568 307 l 544 85 l 539 85 m 200 919 l 115 113 l 518 113 l 536 279 l 300 279 l 367 919 l 200 919 z "},"M":{"ha":972,"x_min":40,"x_max":1015,"o":"m 956 663 q 928 403 942 532 q 900 144 914 275 l 793 144 l 815 356 l 822 410 q 831 503 826 457 q 842 597 836 550 q 845 623 843 607 q 848 656 847 639 q 849 690 849 674 q 844 717 849 706 q 808 761 833 744 q 751 778 783 778 q 692 761 719 778 q 647 717 664 744 q 638 690 642 706 q 631 656 633 674 q 628 623 629 639 q 625 597 626 607 q 613 492 618 544 q 603 388 608 440 l 599 356 l 576 144 l 468 144 l 490 356 q 494 383 493 369 q 496 408 494 396 q 506 503 501 456 q 517 597 511 550 q 520 623 518 607 q 524 656 522 639 q 524 690 525 674 q 519 717 524 706 q 483 761 508 744 q 426 778 458 778 q 367 761 394 778 q 322 717 339 744 q 313 690 317 706 q 306 656 308 674 q 303 623 304 639 q 300 597 301 607 q 288 492 293 544 q 278 388 283 440 l 274 356 l 251 144 l 144 144 q 172 403 158 275 q 200 663 186 532 q 245 785 207 731 q 353 867 283 839 q 485 878 421 893 q 543 854 518 871 q 593 818 568 838 q 651 854 622 838 q 715 878 679 871 q 782 883 751 886 q 844 867 813 881 q 935 785 907 840 q 956 663 963 731 m 876 171 q 903 413 890 293 q 928 656 915 533 q 910 772 935 721 q 824 846 886 822 q 758 858 788 858 q 700 847 728 857 q 646 821 672 838 q 590 785 619 804 q 542 821 565 804 q 494 847 519 838 q 438 858 468 857 q 371 846 408 858 q 267 772 301 822 q 225 656 232 721 q 200 413 213 533 q 174 171 188 293 l 228 171 l 247 356 l 251 388 q 263 503 258 446 q 275 618 268 560 q 283 682 279 651 q 311 744 288 713 q 364 788 333 772 q 429 804 394 804 q 493 788 464 804 q 538 744 522 772 q 553 682 556 713 q 546 618 550 651 q 535 513 540 565 q 524 408 531 461 q 522 383 522 396 q 518 356 521 369 l 499 171 l 553 171 l 572 356 q 574 372 574 364 q 576 388 575 381 q 588 503 583 446 q 600 618 593 560 q 608 682 604 651 q 635 744 611 713 q 688 788 657 772 q 754 804 719 804 q 817 788 789 804 q 861 744 846 772 q 876 682 879 713 q 869 618 874 651 l 849 410 l 842 356 l 822 171 l 876 171 m 679 0 l 739 571 q 737 608 740 594 q 726 630 733 622 q 710 640 718 638 q 693 642 701 642 q 690 642 692 642 q 685 642 688 643 l 626 86 l 619 86 l 574 0 l 360 0 l 419 571 q 417 608 421 594 q 406 630 413 622 q 390 640 399 638 q 374 642 381 642 q 369 642 371 642 q 364 642 367 643 l 306 86 l 300 86 l 254 0 l 40 0 l 101 590 q 135 696 108 649 l 136 700 q 139 703 139 703 l 142 707 l 144 715 l 144 714 l 146 715 l 144 715 l 163 750 q 253 874 190 821 q 344 930 293 910 q 447 950 394 950 q 600 894 533 950 q 764 950 681 950 q 863 931 817 950 q 946 875 910 911 q 999 785 982 835 q 1008 679 1015 736 l 999 582 q 989 488 993 535 q 978 383 985 440 l 946 86 l 940 86 l 894 0 l 679 0 m 746 756 q 770 752 757 756 q 794 739 783 749 q 810 710 804 729 q 814 661 817 692 l 756 114 l 921 114 l 939 286 q 960 483 950 385 q 981 679 971 581 q 924 854 992 785 q 850 904 892 886 q 761 922 808 922 q 685 909 722 922 q 613 872 647 896 l 597 863 l 585 872 q 444 922 522 922 q 351 904 397 922 q 268 854 306 886 q 205 775 229 819 q 175 679 181 731 q 154 482 164 581 q 133 285 144 383 l 115 114 l 282 114 l 340 661 q 353 710 343 692 q 375 739 363 729 q 401 752 388 749 q 426 756 415 756 q 451 752 438 756 q 474 739 464 749 q 490 710 485 729 q 493 661 496 692 l 435 114 l 601 114 l 660 661 q 673 710 663 692 q 696 739 683 729 q 722 752 708 749 q 746 756 735 756 z "},"N":{"ha":642,"x_min":35,"x_max":686,"o":"m 610 790 q 628 738 624 764 q 631 686 632 713 q 626 633 631 660 q 619 579 622 606 q 597 363 608 471 q 575 146 586 254 l 467 146 l 489 358 l 494 413 q 503 507 499 460 q 514 603 508 554 q 517 629 515 613 q 520 663 519 646 q 521 695 521 679 q 517 722 521 711 q 481 768 506 751 q 425 785 457 785 q 365 768 393 785 q 319 722 336 751 q 310 695 314 711 q 303 663 306 679 q 300 629 301 646 q 297 603 299 613 q 286 497 292 550 q 275 392 281 444 l 272 358 l 250 146 l 142 146 q 164 363 153 254 q 186 579 175 471 q 191 633 189 607 q 198 686 193 660 q 213 738 203 713 q 242 790 222 764 q 328 865 276 838 q 436 892 379 892 q 539 865 493 892 q 610 790 585 838 m 592 572 q 597 619 593 593 q 601 670 600 644 q 601 722 603 696 q 590 768 599 747 q 528 839 569 813 q 433 865 486 865 q 334 839 381 865 q 258 768 288 813 q 235 722 243 747 q 224 670 228 696 q 217 619 219 644 q 214 572 215 593 l 172 172 l 226 172 l 246 358 l 249 392 q 261 508 256 450 q 274 624 267 565 q 281 688 276 657 q 308 751 285 719 q 362 795 331 779 q 428 811 393 811 q 491 795 463 811 q 535 751 519 779 q 549 688 553 719 q 543 624 546 657 q 531 518 536 571 q 521 413 526 465 l 515 358 l 496 172 l 550 172 l 592 572 m 442 947 q 562 917 507 947 q 649 835 617 888 q 674 780 665 807 q 684 725 682 753 q 684 669 686 697 q 678 611 682 642 l 622 85 l 615 85 l 569 0 l 357 0 l 417 569 q 414 606 418 592 q 402 627 410 619 q 385 637 394 635 q 368 639 376 639 q 365 640 367 639 q 360 639 363 640 l 301 85 l 296 85 l 249 0 l 35 0 l 89 522 q 101 612 94 569 q 132 697 108 654 q 136 704 135 701 q 139 710 138 707 l 161 751 q 213 835 175 790 q 317 917 257 888 q 442 947 376 947 m 650 611 q 656 719 657 669 q 625 818 656 769 q 547 893 596 867 q 439 919 497 919 q 326 893 381 919 q 231 818 271 867 q 199 769 211 794 q 181 719 188 744 q 170 667 174 693 q 164 611 167 640 l 161 592 l 111 113 l 276 113 l 333 658 q 347 708 338 689 q 370 736 357 726 q 397 749 383 746 q 421 753 410 753 q 444 749 431 753 q 469 736 458 746 q 487 708 481 726 q 489 658 493 689 l 432 113 l 597 113 l 647 592 l 650 611 z "},"W":{"ha":967,"x_min":56,"x_max":1029,"o":"m 972 890 q 945 631 958 760 q 918 372 932 503 q 872 248 911 303 q 763 165 833 193 q 632 154 699 139 q 573 178 599 161 q 524 215 547 196 q 465 178 494 196 q 400 154 436 161 q 334 149 364 147 q 272 165 304 151 q 181 248 208 193 q 161 371 154 303 q 188 631 175 501 q 215 890 201 760 l 324 890 l 301 679 l 296 625 q 285 531 290 578 q 276 438 281 485 q 273 410 275 426 q 269 377 271 394 q 269 344 268 360 q 272 317 269 328 q 308 272 283 289 q 365 256 333 256 q 426 272 397 256 q 469 317 454 289 q 479 344 475 328 q 486 377 483 360 q 490 410 489 394 q 493 436 492 425 q 503 541 499 489 q 514 646 508 593 l 518 679 l 540 890 l 649 890 l 626 679 q 624 652 625 665 q 621 626 622 639 q 610 531 615 578 q 601 438 606 485 q 598 410 600 426 q 594 377 596 394 q 593 344 593 360 q 596 317 593 328 q 632 272 607 289 q 689 256 657 256 q 749 272 721 256 q 793 317 778 289 q 804 344 800 328 q 810 377 808 360 q 814 410 813 394 q 817 436 815 425 q 827 541 822 489 q 838 646 832 593 l 842 679 l 864 890 l 972 890 m 892 378 q 917 621 904 500 q 943 864 931 742 l 889 864 l 869 679 l 865 646 q 854 531 860 588 q 842 415 849 474 q 835 352 839 383 q 806 289 831 321 q 753 245 785 261 q 686 229 721 229 q 579 289 614 229 q 565 352 563 321 q 571 415 568 383 q 582 521 576 468 q 593 626 588 574 q 596 652 594 639 q 599 679 597 665 l 618 864 l 564 864 l 544 679 l 540 646 q 529 531 535 588 q 517 415 524 474 q 510 352 514 383 q 481 289 506 321 q 428 245 460 261 q 363 229 397 229 q 299 245 328 229 q 254 289 271 261 q 241 352 238 321 q 247 415 244 383 q 258 520 253 468 q 269 625 264 572 l 275 679 l 294 864 l 240 864 q 215 621 228 742 q 189 378 201 500 q 206 262 182 313 q 293 188 229 211 q 358 175 328 175 q 416 185 389 175 q 470 212 443 194 q 526 249 497 229 q 574 212 551 229 q 623 185 597 194 q 678 174 649 175 q 747 188 708 174 q 850 262 815 211 q 892 378 885 313 m 807 947 l 1029 947 l 967 354 q 903 203 956 271 l 899 193 l 888 175 l 888 176 l 883 169 l 883 168 l 882 165 l 882 164 l 878 156 q 848 112 865 132 q 810 72 831 92 q 719 19 769 39 q 618 0 669 0 q 537 12 575 0 q 467 50 499 24 l 464 54 q 385 13 428 26 q 300 0 343 0 q 202 19 247 0 q 121 72 157 39 q 71 160 86 108 q 60 265 56 213 q 69 366 64 314 q 81 486 74 418 q 97 643 88 554 q 121 854 107 732 l 165 936 l 167 947 l 389 947 l 329 374 q 330 338 326 351 q 340 318 333 325 q 356 309 347 311 q 371 307 364 307 q 383 308 379 307 l 440 854 l 486 936 l 488 947 l 708 947 l 649 374 q 649 338 646 351 q 660 318 653 325 q 676 309 667 311 q 692 307 685 307 q 704 308 699 307 l 761 854 l 806 936 l 807 947 m 925 240 q 926 243 926 242 l 925 240 m 775 374 q 762 324 772 343 q 739 296 751 306 q 713 283 726 286 q 689 279 699 279 q 665 283 678 279 q 641 296 651 286 q 624 324 631 306 q 621 374 618 343 l 678 919 l 513 919 l 456 374 q 442 324 453 343 q 419 296 432 306 q 393 283 407 286 q 368 279 379 279 q 344 283 357 279 q 320 296 331 286 q 304 324 310 306 q 301 374 299 343 l 358 919 l 192 919 l 174 747 q 152 552 163 650 q 132 354 142 454 q 142 259 126 304 q 189 179 157 214 q 263 130 221 147 q 351 113 304 113 q 501 163 432 113 l 517 174 l 529 163 q 669 113 588 113 q 762 130 715 113 q 844 179 808 147 q 908 259 885 214 q 939 354 932 304 q 960 552 950 454 q 981 747 969 650 l 999 919 l 832 919 l 775 374 z "},"Y":{"ha":642,"x_min":78,"x_max":708,"o":"m 650 901 q 637 761 643 831 q 619 621 631 692 q 601 551 615 582 q 560 492 586 521 q 501 446 532 463 q 438 415 471 429 l 408 138 l 300 138 l 329 415 q 270 446 297 429 q 224 492 243 463 q 188 621 183 547 q 203 761 194 692 q 218 901 211 831 l 326 901 q 314 790 319 844 q 303 679 308 735 q 297 625 300 651 q 307 571 293 599 q 343 533 319 547 q 394 519 367 519 q 448 533 422 519 q 492 571 474 547 q 513 625 511 599 q 518 679 515 651 q 529 790 524 735 q 542 901 535 844 l 650 901 m 592 614 q 601 678 599 646 q 607 744 603 711 q 613 809 610 776 q 621 874 617 842 l 567 874 l 542 644 q 497 537 535 582 q 392 492 458 492 q 294 537 325 492 q 271 644 264 582 l 296 874 l 242 874 q 234 809 238 842 q 228 743 231 776 q 219 678 224 711 q 215 614 215 646 q 223 551 213 578 q 254 497 233 524 q 303 459 276 472 q 357 432 329 446 l 329 165 l 383 165 l 411 432 q 473 459 443 446 q 529 497 503 472 q 571 551 557 524 q 592 614 585 578 m 221 289 q 114 389 150 322 q 86 538 78 456 l 119 853 l 165 935 l 167 946 l 388 946 l 356 640 q 357 605 353 618 q 368 585 361 592 q 383 576 375 578 q 399 574 392 574 l 411 574 l 440 853 l 485 935 l 486 946 l 708 946 l 675 628 q 653 544 671 583 q 608 469 635 504 l 601 454 l 592 438 l 592 439 l 586 425 q 540 365 565 393 q 482 314 514 336 l 458 86 l 451 86 l 406 0 l 192 0 l 221 289 m 422 579 q 424 581 422 579 l 453 632 l 422 579 m 161 628 q 185 490 153 551 q 283 399 218 429 l 296 394 l 267 113 l 433 113 l 463 394 l 478 399 q 594 490 549 429 q 647 628 639 551 l 678 918 l 511 918 l 482 640 q 469 591 479 610 q 447 563 460 572 q 421 549 435 553 q 396 546 407 546 q 372 549 385 546 q 348 563 358 553 q 331 591 338 572 q 328 640 325 610 l 357 918 l 192 918 l 161 628 z "},"S":{"ha":642,"x_min":54,"x_max":681,"o":"m 626 732 l 511 732 q 484 765 501 751 q 447 783 467 778 q 404 783 426 788 q 361 767 382 779 q 326 735 340 754 q 307 696 313 717 q 304 653 301 675 q 319 614 307 632 q 350 585 333 594 q 393 574 367 575 q 436 569 415 571 q 476 558 457 567 q 545 513 517 543 q 588 442 574 482 q 594 355 600 399 q 566 272 588 311 q 508 203 544 233 q 426 160 472 174 q 336 149 381 144 q 256 174 292 154 q 195 229 219 194 q 164 308 171 264 l 279 308 q 306 276 289 289 q 344 258 324 263 q 386 257 364 253 q 429 274 408 261 q 464 305 450 286 q 483 344 478 324 q 486 387 489 365 q 471 426 483 408 q 440 455 457 446 q 397 467 424 464 q 354 471 375 468 q 314 481 333 474 q 245 527 274 496 q 203 599 217 558 q 195 684 189 640 q 224 767 201 728 q 282 835 246 806 q 364 879 318 864 q 454 889 410 893 q 535 865 499 885 q 595 810 571 844 q 626 732 619 776 m 528 758 l 592 758 q 544 824 576 799 q 474 859 513 850 q 392 860 435 868 q 310 824 349 851 q 249 758 271 796 q 223 681 228 721 q 232 601 218 640 q 278 535 246 563 q 351 497 307 508 q 391 494 371 493 q 431 488 411 494 q 494 441 472 475 q 514 363 517 407 q 479 281 510 314 q 409 236 449 249 q 328 233 369 224 q 263 282 288 243 l 199 282 q 245 216 214 242 q 316 181 276 190 q 399 179 356 171 q 481 215 442 188 q 540 281 518 243 q 567 360 563 319 q 558 439 571 400 q 513 506 544 478 q 438 542 481 532 q 398 546 418 546 q 358 553 378 546 q 295 599 318 565 q 276 676 272 633 q 311 757 281 724 q 381 803 342 790 q 462 807 421 817 q 528 758 503 797 m 493 79 q 388 15 440 31 q 300 0 336 0 q 201 19 249 0 q 119 72 153 38 q 57 268 54 142 l 103 351 q 102 356 101 354 q 103 361 103 358 l 192 361 q 135 415 160 383 q 100 485 111 446 q 92 589 86 536 q 126 696 97 643 q 132 710 129 701 l 153 746 q 186 810 164 779 q 236 868 208 842 q 344 933 292 918 q 435 949 397 949 q 534 929 488 949 q 617 874 581 910 q 664 790 649 842 q 681 672 679 738 l 674 672 l 628 588 l 540 588 q 635 460 607 544 q 647 357 651 407 q 627 278 643 317 q 583 207 611 240 l 563 167 l 557 158 q 493 79 531 114 m 131 333 q 188 181 128 242 q 262 131 219 149 q 351 113 304 113 q 432 126 385 113 q 528 185 479 140 q 609 308 588 238 q 610 450 631 379 q 531 560 586 519 q 400 600 476 600 q 333 647 349 600 q 334 692 328 669 q 360 731 340 715 q 415 753 383 753 q 460 738 440 753 q 483 700 479 724 l 653 700 q 638 784 653 744 q 594 853 624 824 q 520 903 563 885 q 432 921 478 921 q 351 907 397 921 q 256 849 304 893 q 174 725 196 796 q 174 583 153 654 q 251 474 196 514 q 382 433 307 433 q 424 421 406 433 q 450 385 443 408 q 449 342 457 364 q 424 303 442 319 q 368 279 397 279 q 323 294 342 279 q 299 333 304 310 l 131 333 m 344 318 q 361 308 351 311 q 344 318 356 315 m 393 629 q 383 635 386 632 q 372 640 379 639 q 393 629 381 629 z "},"T":{"ha":589,"x_min":97,"x_max":657,"o":"m 599 892 l 588 786 l 449 786 l 382 151 l 274 151 l 340 786 l 204 786 l 215 892 l 599 892 l 599 892 m 563 813 l 568 865 l 239 865 l 233 813 l 369 813 l 303 178 l 357 178 l 424 813 l 563 813 l 563 813 m 164 936 l 165 947 l 657 947 l 633 726 l 628 726 l 581 640 l 489 640 l 431 86 l 424 86 l 378 0 l 164 0 l 231 640 l 97 640 l 119 854 l 164 936 m 190 919 l 174 754 l 307 754 l 239 114 l 406 114 l 474 754 l 610 754 l 626 919 l 190 919 z "},"V":{"ha":642,"x_min":122,"x_max":710,"o":"m 636 893 l 439 151 l 264 151 l 222 893 l 332 893 l 365 288 l 526 893 l 636 893 l 636 893 m 418 178 l 601 867 l 547 867 l 382 246 l 340 246 l 306 867 l 251 867 l 289 178 l 344 178 l 364 178 l 418 178 l 418 178 m 485 949 l 710 949 l 486 86 l 479 86 l 433 0 l 168 0 l 122 854 l 169 939 l 168 949 l 393 949 l 403 721 l 439 854 l 481 931 l 485 949 m 463 114 l 675 921 l 507 921 l 388 456 l 381 618 l 365 921 l 197 921 l 240 114 l 463 114 z "},"X":{"ha":642,"x_min":11,"x_max":729,"o":"m 642 889 l 450 515 l 563 140 l 446 140 l 378 371 l 260 140 l 143 140 l 333 515 l 222 889 l 339 889 l 407 660 l 525 889 l 642 889 m 421 515 l 599 863 l 540 863 l 400 588 l 318 863 l 260 863 l 363 515 l 186 168 l 244 168 l 385 443 l 467 168 l 525 168 l 421 515 m 729 947 l 513 517 l 538 428 q 590 253 563 344 q 639 85 618 161 l 631 85 l 583 0 l 353 0 l 314 128 l 293 85 l 289 85 l 243 0 l 11 0 l 75 128 l 226 426 q 195 531 211 476 q 163 641 179 586 q 131 750 147 696 q 100 854 114 804 l 149 939 l 144 947 l 383 947 l 422 818 q 442 854 431 839 l 447 863 l 490 947 l 729 947 m 482 517 l 685 919 l 506 919 l 415 740 l 363 919 l 183 919 l 303 517 l 99 113 l 278 113 l 368 292 l 421 113 l 600 113 l 482 517 z "},"Q":{"ha":642,"x_min":60,"x_max":685,"o":"m 626 639 q 614 522 619 581 q 601 404 608 464 q 593 338 597 365 q 579 288 589 311 q 553 242 569 265 q 507 188 536 218 l 538 86 l 422 86 l 401 139 q 341 139 369 138 q 288 149 313 140 q 240 173 263 157 q 197 217 218 189 q 171 270 178 243 q 163 325 164 297 q 167 381 163 353 q 174 440 171 410 q 186 558 181 499 q 199 676 192 618 q 242 788 206 738 q 336 867 278 839 q 453 888 394 893 q 560 847 513 883 q 622 756 611 806 q 626 639 633 706 m 596 614 q 601 670 599 643 q 599 723 603 697 q 584 772 596 749 q 550 815 572 794 q 456 862 513 854 q 343 842 400 869 q 257 766 285 814 q 222 660 229 718 q 211 547 217 603 q 200 438 206 492 q 193 382 197 410 q 190 328 189 354 q 199 277 192 303 q 226 228 207 251 q 269 190 247 203 q 316 172 292 176 q 367 167 340 167 q 424 168 394 167 l 442 113 l 500 113 l 474 193 q 520 244 503 224 q 548 284 538 264 q 563 328 558 304 q 572 392 568 353 q 584 504 579 449 q 596 614 589 560 m 529 488 q 526 451 528 476 q 519 396 524 425 q 510 341 515 367 q 499 303 506 315 q 428 232 474 251 q 340 221 383 213 q 268 263 297 229 q 244 354 239 297 q 254 445 250 400 q 264 536 258 490 q 267 574 265 549 q 273 629 269 600 q 281 685 276 658 q 290 724 286 711 q 363 794 317 775 q 453 806 410 814 q 525 763 496 797 q 549 674 554 729 q 540 581 544 626 q 529 488 535 535 m 486 343 q 497 428 493 388 q 504 510 500 469 q 513 592 508 551 q 521 674 517 633 q 497 753 526 725 q 428 782 468 781 q 352 758 389 783 q 306 681 315 733 q 296 600 299 640 q 289 518 293 560 q 280 436 285 478 q 271 354 275 394 q 294 274 265 301 q 363 245 324 247 q 440 267 403 243 q 486 343 476 292 m 421 300 q 397 285 410 289 q 371 282 383 282 q 318 303 339 282 q 301 357 297 325 l 332 660 q 340 696 335 678 q 368 732 344 714 q 417 751 388 751 q 468 728 449 751 q 483 674 488 706 l 451 369 q 445 335 450 354 q 421 300 440 317 m 329 357 q 340 322 326 336 q 374 308 354 308 q 385 311 379 308 l 414 585 q 403 623 417 607 q 365 639 389 639 q 358 639 358 639 l 329 357 m 299 0 q 183 30 236 0 q 99 110 129 60 q 72 164 81 136 q 62 219 64 192 q 63 274 60 246 q 68 332 65 303 l 69 346 q 71 360 69 354 q 72 372 71 365 q 84 481 79 436 q 92 556 89 526 q 97 600 94 585 q 101 622 99 615 q 113 658 107 640 q 129 692 119 676 l 129 694 l 132 697 l 157 740 q 220 846 176 799 q 317 917 264 893 q 376 938 346 929 q 438 947 407 947 q 538 927 492 947 q 617 873 583 907 q 667 792 650 839 q 682 692 685 746 q 677 647 679 669 q 672 601 675 624 l 669 574 q 668 561 668 568 l 653 421 q 647 362 650 389 q 636 309 643 335 q 617 258 629 283 q 586 207 606 233 l 569 176 l 615 32 l 608 32 l 563 -51 l 328 -51 l 315 0 l 299 0 m 167 211 q 244 140 194 167 q 350 113 293 113 l 361 113 l 378 115 l 396 61 l 575 61 l 536 188 l 546 199 q 585 251 571 225 q 607 303 599 276 q 619 360 615 331 q 626 421 624 389 l 642 561 q 646 601 644 586 q 651 645 649 624 q 656 689 653 667 q 641 779 657 738 q 595 851 625 821 q 524 899 565 882 q 435 917 483 917 q 380 911 407 917 q 325 890 353 906 q 229 817 269 867 q 174 708 189 767 q 170 692 172 704 q 165 652 168 679 q 158 580 163 625 q 146 467 153 535 q 144 456 144 460 q 143 447 144 451 q 142 435 143 442 q 140 421 142 428 q 135 313 135 364 q 167 211 135 263 z "},"a":{"ha":642,"x_min":33,"x_max":682,"o":"m 610 790 q 628 738 624 764 q 631 685 632 711 q 626 632 631 658 q 619 578 622 606 q 597 360 608 468 q 574 142 585 251 l 465 142 l 488 356 l 271 356 l 249 142 l 140 142 q 163 360 151 251 q 186 578 175 468 q 191 632 189 606 q 198 685 193 658 q 213 737 203 711 q 242 789 222 763 q 328 865 276 838 q 436 892 379 892 q 539 865 493 892 q 610 790 585 838 m 592 569 q 597 617 593 592 q 601 669 600 643 q 601 721 603 696 q 590 767 599 746 q 528 839 569 813 q 433 865 486 865 q 333 839 381 865 q 258 767 286 813 q 235 720 243 746 q 224 669 228 694 q 217 617 219 643 q 214 569 215 592 q 192 369 203 469 q 171 168 182 269 l 225 168 l 247 382 l 517 382 l 494 168 l 549 168 q 570 369 560 268 q 592 569 581 469 m 547 663 q 535 549 540 604 q 524 436 529 493 l 254 436 q 265 549 260 493 q 278 663 271 604 q 323 767 285 724 q 428 811 361 811 q 485 799 461 811 q 524 767 508 788 q 544 720 539 747 q 547 663 550 693 m 499 463 l 519 654 q 522 701 522 679 q 506 744 521 724 q 472 775 490 765 q 425 785 453 785 q 338 744 374 785 q 312 701 318 724 q 303 654 306 679 l 282 463 l 499 463 m 131 699 q 133 703 131 700 l 131 699 m 332 651 q 334 678 332 664 q 344 707 336 692 q 418 753 368 753 q 485 707 467 753 q 489 678 490 692 q 486 651 488 664 l 485 638 l 469 492 l 315 492 l 331 638 l 332 651 m 346 519 l 407 519 l 411 563 q 415 585 414 574 q 414 608 417 597 q 367 639 400 639 l 358 639 l 346 519 m 247 0 l 33 0 l 82 464 q 86 510 83 485 q 92 560 89 536 q 98 605 96 585 q 103 633 100 625 q 115 665 107 649 q 129 696 122 681 l 131 699 l 153 739 q 204 828 171 788 q 282 899 238 869 q 439 947 354 947 q 565 916 508 947 q 653 826 621 885 q 681 724 681 774 q 675 621 682 674 l 619 85 l 614 85 l 568 0 l 353 0 l 375 213 l 314 213 l 300 85 l 293 85 l 247 0 m 176 719 q 170 685 174 710 q 163 632 167 661 q 157 575 160 603 q 153 531 154 547 l 150 513 l 108 113 l 275 113 l 297 325 l 451 325 l 429 113 l 594 113 l 647 621 q 653 717 653 669 q 628 811 653 764 q 549 891 600 863 q 436 919 499 919 q 294 876 361 919 q 221 808 251 849 q 176 719 190 768 z "},"b":{"ha":642,"x_min":36,"x_max":690,"o":"m 253 144 l 147 144 l 226 892 l 332 892 q 410 893 372 892 q 482 888 447 894 q 547 861 517 881 q 601 801 576 842 q 628 732 624 767 q 625 656 633 697 q 594 581 615 613 q 546 518 572 550 q 581 454 565 486 q 596 381 596 422 q 583 303 596 338 q 542 233 571 268 q 474 174 508 193 q 404 148 440 154 q 331 143 368 142 q 253 144 293 144 m 594 643 q 603 715 606 683 q 582 782 600 747 q 538 834 563 815 q 474 861 513 853 q 401 866 438 868 q 329 864 365 864 l 250 864 l 176 171 l 256 171 q 328 169 292 171 q 401 175 364 168 q 471 201 442 183 q 526 254 500 219 q 561 320 551 288 q 568 393 571 353 q 549 460 565 432 q 513 518 532 489 q 560 576 538 547 q 594 643 583 604 m 467 806 q 530 758 507 793 q 549 678 553 722 q 513 598 543 633 q 440 550 483 563 q 406 546 431 547 q 355 544 382 544 q 303 544 328 544 q 269 544 279 544 l 297 811 q 331 811 307 811 q 383 811 356 811 q 434 810 410 811 q 467 806 458 808 m 435 575 q 494 614 471 586 q 522 678 518 642 q 508 742 525 714 q 457 781 490 769 q 431 783 450 782 q 389 785 411 785 q 347 785 367 785 q 321 785 328 785 l 299 571 q 325 571 306 571 q 367 571 344 571 q 408 572 389 571 q 435 575 428 572 m 433 486 q 497 438 474 474 q 515 357 519 401 q 480 277 510 313 q 407 229 450 242 q 372 225 397 226 q 320 224 347 224 q 269 224 293 224 q 235 224 244 224 l 264 492 q 298 492 274 492 q 349 492 322 492 q 401 490 376 492 q 433 486 425 489 m 401 256 q 461 293 438 265 q 489 357 485 321 q 474 422 492 393 q 422 460 456 450 q 397 463 415 461 q 356 464 378 464 q 314 464 333 464 q 288 464 294 464 l 265 251 q 292 251 272 251 q 333 251 311 251 q 374 252 354 251 q 401 256 393 253 m 557 149 q 446 41 514 82 q 303 0 378 0 l 36 0 l 125 854 l 169 935 l 171 947 l 442 947 q 578 907 518 947 q 668 797 639 867 q 685 675 690 739 q 622 526 676 600 l 614 514 q 651 358 660 440 q 608 238 643 294 q 600 222 606 229 q 589 208 594 215 l 557 149 m 111 114 l 354 114 q 486 149 425 114 q 585 249 547 185 q 626 379 625 313 q 590 503 626 446 l 582 517 l 593 531 q 655 655 642 588 q 642 786 668 722 q 563 885 617 850 q 439 919 510 919 l 196 919 l 111 114 m 493 676 q 465 622 490 644 q 408 600 440 600 l 332 600 l 349 754 l 425 754 q 476 731 457 754 q 493 676 496 708 m 406 628 q 372 640 390 640 l 364 640 l 363 628 l 406 628 m 460 357 q 431 302 456 325 q 375 279 407 279 l 299 279 l 314 433 l 390 433 q 442 411 422 433 q 460 357 463 389 m 372 307 q 339 319 357 319 l 331 319 l 329 307 l 372 307 z "},"c":{"ha":642,"x_min":57,"x_max":681,"o":"m 625 732 l 510 732 q 474 770 497 757 q 423 784 450 783 q 369 772 396 785 q 324 735 342 760 q 301 683 304 708 q 296 629 299 657 q 290 574 293 601 q 285 519 288 547 q 279 465 282 492 q 274 411 276 439 q 267 358 271 383 q 279 306 264 332 q 316 268 292 281 q 367 256 340 256 q 421 269 394 256 q 465 308 447 282 l 581 308 q 525 222 563 258 q 442 167 488 186 q 346 149 396 149 q 253 175 296 150 q 187 239 211 199 q 160 328 163 279 q 162 364 160 336 q 167 424 164 392 q 174 483 171 456 q 178 519 176 511 q 182 556 179 528 q 188 616 185 585 q 194 676 192 647 q 200 713 197 704 q 246 801 213 761 q 325 864 279 840 q 424 890 374 889 q 516 873 474 892 q 588 818 558 854 q 625 732 617 782 m 526 758 l 589 758 q 543 823 574 797 q 474 858 513 849 q 392 860 435 868 q 311 826 350 853 q 251 763 274 800 q 221 685 228 726 q 212 602 215 643 q 204 519 208 561 q 195 438 200 479 q 186 356 190 396 q 199 276 183 313 q 247 214 215 239 q 321 180 281 188 q 402 181 361 172 q 479 216 443 190 q 539 282 515 242 l 476 282 q 423 242 453 256 q 363 229 393 229 q 305 242 332 229 q 261 281 278 254 q 242 337 242 308 q 246 397 242 365 q 252 459 249 429 q 258 519 256 489 q 265 581 261 551 q 271 642 268 611 q 280 702 274 674 q 311 758 286 731 q 363 798 333 785 q 424 811 393 811 q 481 798 454 811 q 526 758 508 785 m 557 167 q 447 46 517 92 q 299 0 378 0 q 258 3 279 0 q 218 13 238 7 q 119 76 160 32 q 64 181 79 121 q 58 240 57 211 q 64 304 60 268 l 89 554 q 98 617 93 588 q 117 676 103 646 l 125 692 l 153 746 l 163 767 q 242 871 189 825 q 354 936 294 917 q 438 950 396 950 q 535 928 490 950 q 613 869 581 907 q 663 781 644 832 q 681 674 681 731 l 674 674 l 628 588 l 415 588 q 364 642 404 639 q 359 642 361 642 q 354 642 357 643 l 354 636 q 350 603 351 619 q 349 571 349 588 l 336 463 q 332 431 333 447 q 329 400 331 415 q 326 376 328 390 q 325 353 325 363 q 340 322 326 335 q 372 310 353 310 q 404 324 389 310 q 431 363 419 339 l 649 363 q 623 284 640 322 q 582 214 606 246 l 557 167 m 279 125 q 315 117 297 121 q 350 114 332 114 q 441 131 397 114 q 520 178 485 149 q 581 249 556 208 q 615 335 606 289 l 447 335 q 417 297 438 311 q 371 282 396 283 l 367 282 q 317 302 338 282 q 297 351 297 322 q 302 408 299 381 q 310 464 306 436 l 315 518 l 321 571 q 325 627 324 599 q 332 683 326 656 q 363 735 339 714 q 417 756 388 756 l 421 756 q 463 740 446 754 q 486 701 481 725 l 654 701 q 638 788 654 747 q 592 858 621 828 q 522 905 563 888 q 435 922 482 922 q 361 910 399 922 q 258 853 304 893 q 188 758 213 813 q 170 703 175 731 q 163 643 165 675 l 136 393 q 132 333 133 361 q 138 278 131 306 q 189 183 151 224 q 279 125 226 143 z "},"d":{"ha":642,"x_min":31,"x_max":685,"o":"m 626 681 l 593 357 q 566 273 588 313 q 513 204 544 233 q 439 158 481 175 q 353 140 397 140 l 299 140 l 138 140 l 217 897 l 325 897 l 378 897 l 432 897 q 515 880 476 897 q 579 833 553 863 q 618 765 606 804 q 626 681 631 725 m 565 357 l 599 681 q 592 754 603 719 q 558 815 581 789 q 501 855 535 840 q 429 869 468 869 l 375 869 l 322 869 l 240 869 l 167 167 l 301 167 l 329 167 l 356 167 q 431 181 394 167 q 496 222 468 196 q 542 283 524 249 q 565 357 561 317 m 546 681 l 513 357 q 496 304 510 329 q 462 260 482 279 q 415 231 442 242 q 361 221 389 221 l 226 221 l 247 411 l 281 735 l 289 815 l 424 815 q 475 805 451 815 q 515 776 499 794 q 540 733 532 758 q 546 681 549 708 m 485 357 l 518 681 q 494 757 524 725 q 421 789 465 789 l 314 789 l 308 735 l 275 411 l 257 249 l 364 249 q 407 257 386 249 q 444 280 428 265 q 472 315 461 294 q 485 357 482 335 m 556 156 q 448 43 517 86 q 297 0 379 0 l 31 0 l 119 854 l 164 935 l 165 947 l 436 947 q 540 926 493 947 q 620 869 588 906 q 669 783 653 832 q 679 676 685 733 l 646 357 q 581 200 635 267 l 563 168 q 560 163 561 165 q 556 156 558 160 m 349 113 q 445 132 399 113 q 528 185 492 151 q 588 263 564 218 q 618 357 613 307 l 651 676 q 642 771 657 726 q 598 849 628 815 q 526 901 568 882 q 433 919 483 919 l 190 919 l 106 113 l 349 113 m 461 444 q 456 400 458 422 q 451 354 454 378 q 431 308 449 328 q 389 282 413 289 q 353 278 369 278 l 333 278 q 323 279 326 279 q 314 279 319 279 l 290 279 l 339 750 q 381 752 351 751 q 440 740 410 753 q 467 720 458 733 q 480 692 476 707 q 483 661 483 676 q 482 636 483 646 q 481 625 481 632 l 467 490 l 461 444 m 388 310 q 401 442 396 382 q 410 541 407 493 q 414 607 414 589 q 405 631 414 624 q 385 640 396 638 q 356 642 371 643 l 321 307 q 331 307 325 307 q 340 306 338 307 l 356 306 q 369 306 363 306 q 383 308 376 307 l 388 310 z "},"e":{"ha":642,"x_min":31,"x_max":708,"o":"m 583 253 l 572 146 l 301 146 l 247 146 l 139 146 l 219 890 l 325 890 l 379 890 l 650 890 l 639 785 l 311 785 l 289 571 l 617 571 l 606 464 l 278 464 l 256 253 l 583 253 l 583 253 m 547 172 l 553 225 l 226 225 l 254 490 l 581 490 l 586 543 l 260 543 l 288 811 l 614 811 l 619 864 l 376 864 l 322 864 l 243 864 l 171 172 l 250 172 l 304 172 l 547 172 l 547 172 m 611 85 l 565 0 l 31 0 l 119 854 l 165 935 l 167 947 l 708 947 l 685 725 l 678 725 l 632 639 l 356 639 l 354 626 l 675 626 l 651 406 l 644 406 l 599 319 l 322 319 l 321 307 l 642 307 l 618 85 l 611 85 m 190 919 l 106 113 l 593 113 l 611 279 l 290 279 l 306 433 l 626 433 l 644 599 l 324 599 l 339 753 l 660 753 l 678 919 l 190 919 z "},"f":{"ha":642,"x_min":33,"x_max":710,"o":"m 617 571 l 604 463 l 279 463 l 246 138 l 138 138 l 217 894 l 325 894 l 379 894 l 650 894 l 639 786 l 314 786 l 292 571 l 617 571 l 617 571 m 579 489 l 586 543 l 263 543 l 290 814 l 614 814 l 619 868 l 242 868 l 168 165 l 222 165 l 256 489 l 579 489 l 579 489 m 293 85 l 247 0 l 33 0 l 122 854 l 167 935 l 168 947 l 710 947 l 686 725 l 681 725 l 633 640 l 358 640 l 357 628 l 676 628 l 653 406 l 647 406 l 600 319 l 325 319 l 300 85 l 293 85 m 193 919 l 108 113 l 275 113 l 308 433 l 628 433 l 646 600 l 326 600 l 342 753 l 661 753 l 679 919 l 193 919 z "},"g":{"ha":642,"x_min":56,"x_max":681,"o":"m 600 456 q 594 400 597 428 q 589 344 592 372 q 540 238 578 286 q 444 167 503 190 q 331 147 389 142 q 229 186 274 153 q 165 273 176 225 q 161 383 154 321 q 172 497 167 442 q 185 610 178 553 q 191 667 188 639 q 202 720 194 694 q 224 771 210 746 q 265 821 239 796 q 372 881 314 867 q 483 881 431 894 q 574 828 535 867 q 622 728 613 789 l 507 728 q 460 772 490 760 q 399 780 431 785 q 340 753 367 775 q 303 694 313 731 q 299 671 301 690 q 294 630 296 651 q 290 589 292 608 q 288 565 288 569 l 275 436 q 271 408 274 425 q 267 372 268 390 q 266 338 265 354 q 272 308 267 321 q 314 264 286 279 q 378 253 342 249 q 438 280 411 257 q 476 335 465 303 q 481 359 478 340 q 485 399 483 378 q 490 440 488 421 q 493 464 492 458 l 367 464 l 378 569 l 613 569 q 606 513 610 542 q 600 456 603 485 m 561 344 q 574 444 571 394 q 582 543 576 493 l 396 543 l 390 490 l 524 490 l 515 415 q 511 378 513 396 q 506 340 510 360 q 468 273 496 303 q 401 232 440 243 q 326 231 363 221 q 265 268 289 240 q 245 301 251 285 q 238 335 239 318 q 240 371 238 353 q 243 408 242 389 q 251 483 247 446 q 260 557 256 519 q 262 587 260 565 q 267 632 264 608 q 273 677 269 656 q 279 707 276 699 q 325 772 293 747 q 393 805 357 797 q 465 800 429 813 q 524 754 501 788 l 586 754 q 526 831 567 804 q 438 860 486 857 q 340 841 389 863 q 257 774 292 819 q 230 726 239 750 q 217 678 221 701 q 211 630 213 654 q 207 581 210 606 q 197 482 201 532 q 188 383 192 432 q 190 285 181 328 q 244 208 200 243 q 335 173 283 178 q 435 190 386 168 q 519 253 485 211 q 561 344 553 294 m 672 674 l 649 628 l 674 628 l 646 357 q 624 276 640 314 q 581 204 607 238 l 556 157 q 448 44 517 88 q 297 0 379 0 q 217 13 258 0 q 118 76 158 32 q 63 181 78 121 q 56 239 56 210 q 60 303 57 268 l 86 551 q 96 616 90 588 q 115 675 101 644 q 120 687 118 682 q 125 699 122 692 l 153 747 l 163 767 q 240 872 189 828 q 354 936 290 917 q 397 945 376 943 q 438 947 417 947 q 534 926 489 947 q 612 867 579 904 q 663 781 644 831 q 679 674 681 731 l 672 674 m 643 600 l 351 600 l 333 433 l 458 433 l 451 357 q 424 303 447 325 q 369 279 400 281 l 367 279 q 315 300 336 279 q 296 351 294 321 q 301 408 297 379 q 307 464 304 436 q 310 490 310 478 q 314 517 311 503 q 316 544 315 531 q 318 569 317 557 q 323 626 321 597 q 331 683 325 654 q 361 733 336 713 q 417 754 386 754 l 419 754 q 460 738 443 753 q 482 700 478 724 l 651 700 q 636 786 653 746 q 590 856 619 826 q 521 902 561 885 q 435 919 481 919 q 360 910 394 919 q 257 851 303 892 q 188 757 211 811 q 169 702 175 729 q 161 642 164 675 l 135 392 q 131 332 132 360 q 138 278 131 304 q 188 182 150 222 q 278 125 225 142 q 313 116 294 118 q 350 114 331 114 q 446 133 400 114 q 528 185 492 153 q 589 263 565 218 q 618 357 613 307 l 643 600 m 338 319 q 371 307 350 307 q 382 310 374 307 l 383 319 l 338 319 z "},"h":{"ha":642,"x_min":32,"x_max":708,"o":"m 650 897 l 571 140 l 463 140 l 497 465 l 281 465 l 246 140 l 138 140 l 217 897 l 325 897 l 292 574 l 508 574 l 542 897 l 650 897 l 650 897 m 546 168 l 619 871 l 565 871 l 532 546 l 263 546 l 296 871 l 242 871 l 168 168 l 222 168 l 257 492 l 526 492 l 492 168 l 546 168 l 546 168 m 292 86 l 246 0 l 32 0 l 121 854 l 165 935 l 167 947 l 389 947 l 356 628 l 417 628 l 440 854 l 486 935 l 488 947 l 708 947 l 618 86 l 613 86 l 567 0 l 351 0 l 385 321 l 324 321 l 299 86 l 292 86 m 192 919 l 107 114 l 274 114 l 307 433 l 461 433 l 428 114 l 593 114 l 678 919 l 513 919 l 479 600 l 325 600 l 358 919 l 192 919 z "},"i":{"ha":342,"x_min":43,"x_max":400,"o":"m 338 893 l 260 151 l 151 151 l 229 893 l 338 893 l 338 893 m 236 178 l 308 867 l 254 867 l 182 178 l 236 178 l 236 178 m 303 86 l 257 0 l 43 0 l 132 856 l 176 936 l 178 949 l 400 949 l 310 86 l 303 86 m 203 921 l 118 114 l 285 114 l 369 921 l 203 921 z "},"j":{"ha":642,"x_min":54,"x_max":704,"o":"m 614 608 q 610 579 613 601 q 605 527 608 557 q 598 464 601 497 q 591 401 594 431 q 584 349 588 371 q 579 319 581 326 q 527 224 563 263 q 447 167 492 186 q 355 146 403 147 q 266 162 307 144 q 195 215 225 179 q 157 307 165 251 l 272 307 q 304 269 283 283 q 349 253 325 256 q 399 260 374 251 q 444 290 424 269 q 474 335 468 313 q 482 386 479 358 q 487 437 485 411 q 492 488 489 463 q 513 693 503 592 q 535 897 524 794 l 643 897 q 628 752 636 824 q 614 608 621 681 m 561 361 q 588 616 575 489 q 614 869 601 743 l 560 869 q 538 659 549 764 q 515 447 526 554 q 511 395 513 421 q 503 342 510 369 q 442 253 489 286 q 390 230 417 236 q 338 227 364 224 q 291 244 313 231 q 256 279 269 257 l 193 279 q 242 208 210 233 q 314 176 275 183 q 394 177 353 168 q 472 210 436 186 q 531 273 507 235 q 561 361 556 311 m 101 351 q 101 355 100 353 q 101 360 101 357 l 319 360 q 338 322 324 336 q 368 307 351 308 q 382 310 371 307 l 382 317 q 385 344 385 332 q 388 372 385 357 l 438 854 l 482 936 l 483 947 l 704 947 l 646 392 q 638 326 642 356 q 619 267 633 297 q 601 234 613 250 q 579 204 590 218 l 561 169 q 558 164 558 167 q 554 158 557 161 q 478 67 525 107 q 375 11 431 28 q 334 2 354 4 q 294 0 314 0 q 198 21 242 0 q 122 77 154 42 q 72 161 89 113 q 54 267 54 210 l 101 351 m 603 246 l 604 247 l 604 249 l 603 246 m 129 332 q 144 246 128 286 q 189 176 160 206 q 258 129 218 146 q 346 113 299 113 q 421 122 383 113 q 524 181 478 140 q 593 275 569 222 q 610 331 606 303 q 618 392 615 358 l 674 919 l 508 919 l 483 681 l 465 515 l 460 463 q 456 406 458 435 q 447 350 454 378 q 418 300 442 321 q 365 279 394 279 l 361 279 q 319 294 338 281 q 296 332 300 308 l 129 332 z "},"k":{"ha":642,"x_min":39,"x_max":721,"o":"m 626 889 l 399 519 l 549 149 l 428 149 l 292 485 l 257 149 l 149 149 l 226 889 l 335 889 l 299 553 l 506 889 l 626 889 l 626 889 m 369 519 l 579 863 l 519 863 l 308 519 l 447 175 l 507 175 l 369 519 l 369 519 m 232 175 l 274 575 l 276 597 l 304 863 l 251 863 l 179 175 l 232 175 l 232 175 m 471 947 l 721 947 l 461 517 l 629 86 l 619 86 l 574 0 l 335 0 l 303 86 l 300 86 l 254 0 l 39 0 l 128 854 l 174 936 l 175 947 l 396 947 l 381 797 l 471 947 m 588 114 l 431 517 l 672 919 l 486 919 l 340 678 l 350 778 l 365 919 l 200 919 l 115 114 l 281 114 l 296 254 l 308 363 l 401 114 l 588 114 z "},"l":{"ha":563,"x_min":40,"x_max":568,"o":"m 508 251 l 497 146 l 149 146 l 154 199 l 165 304 l 226 886 l 335 886 l 268 251 l 508 251 l 508 251 m 474 172 l 479 225 l 239 225 l 306 860 l 251 860 l 179 172 l 474 172 l 474 172 m 539 85 l 490 0 l 40 0 l 129 854 l 174 936 l 175 947 l 397 947 l 331 307 l 568 307 l 544 85 l 539 85 m 200 919 l 115 113 l 518 113 l 536 279 l 300 279 l 367 919 l 200 919 z "},"m":{"ha":972,"x_min":40,"x_max":1015,"o":"m 956 663 q 928 403 942 532 q 900 144 914 275 l 793 144 l 815 356 l 822 410 q 831 503 826 457 q 842 597 836 550 q 845 623 843 607 q 848 656 847 639 q 849 690 849 674 q 844 717 849 706 q 808 761 833 744 q 751 778 783 778 q 692 761 719 778 q 647 717 664 744 q 638 690 642 706 q 631 656 633 674 q 628 623 629 639 q 625 597 626 607 q 613 492 618 544 q 603 388 608 440 l 599 356 l 576 144 l 468 144 l 490 356 q 494 383 493 369 q 496 408 494 396 q 506 503 501 456 q 517 597 511 550 q 520 623 518 607 q 524 656 522 639 q 524 690 525 674 q 519 717 524 706 q 483 761 508 744 q 426 778 458 778 q 367 761 394 778 q 322 717 339 744 q 313 690 317 706 q 306 656 308 674 q 303 623 304 639 q 300 597 301 607 q 288 492 293 544 q 278 388 283 440 l 274 356 l 251 144 l 144 144 q 172 403 158 275 q 200 663 186 532 q 245 785 207 731 q 353 867 283 839 q 485 878 421 893 q 543 854 518 871 q 593 818 568 838 q 651 854 622 838 q 715 878 679 871 q 782 883 751 886 q 844 867 813 881 q 935 785 907 840 q 956 663 963 731 m 876 171 q 903 413 890 293 q 928 656 915 533 q 910 772 935 721 q 824 846 886 822 q 758 858 788 858 q 700 847 728 857 q 646 821 672 838 q 590 785 619 804 q 542 821 565 804 q 494 847 519 838 q 438 858 468 857 q 371 846 408 858 q 267 772 301 822 q 225 656 232 721 q 200 413 213 533 q 174 171 188 293 l 228 171 l 247 356 l 251 388 q 263 503 258 446 q 275 618 268 560 q 283 682 279 651 q 311 744 288 713 q 364 788 333 772 q 429 804 394 804 q 493 788 464 804 q 538 744 522 772 q 553 682 556 713 q 546 618 550 651 q 535 513 540 565 q 524 408 531 461 q 522 383 522 396 q 518 356 521 369 l 499 171 l 553 171 l 572 356 q 574 372 574 364 q 576 388 575 381 q 588 503 583 446 q 600 618 593 560 q 608 682 604 651 q 635 744 611 713 q 688 788 657 772 q 754 804 719 804 q 817 788 789 804 q 861 744 846 772 q 876 682 879 713 q 869 618 874 651 l 849 410 l 842 356 l 822 171 l 876 171 m 679 0 l 739 571 q 737 608 740 594 q 726 630 733 622 q 710 640 718 638 q 693 642 701 642 q 690 642 692 642 q 685 642 688 643 l 626 86 l 619 86 l 574 0 l 360 0 l 419 571 q 417 608 421 594 q 406 630 413 622 q 390 640 399 638 q 374 642 381 642 q 369 642 371 642 q 364 642 367 643 l 306 86 l 300 86 l 254 0 l 40 0 l 101 590 q 135 696 108 649 l 136 700 q 139 703 139 703 l 142 707 l 144 715 l 144 714 l 146 715 l 144 715 l 163 750 q 253 874 190 821 q 344 930 293 910 q 447 950 394 950 q 600 894 533 950 q 764 950 681 950 q 863 931 817 950 q 946 875 910 911 q 999 785 982 835 q 1008 679 1015 736 l 999 582 q 989 488 993 535 q 978 383 985 440 l 946 86 l 940 86 l 894 0 l 679 0 m 746 756 q 770 752 757 756 q 794 739 783 749 q 810 710 804 729 q 814 661 817 692 l 756 114 l 921 114 l 939 286 q 960 483 950 385 q 981 679 971 581 q 924 854 992 785 q 850 904 892 886 q 761 922 808 922 q 685 909 722 922 q 613 872 647 896 l 597 863 l 585 872 q 444 922 522 922 q 351 904 397 922 q 268 854 306 886 q 205 775 229 819 q 175 679 181 731 q 154 482 164 581 q 133 285 144 383 l 115 114 l 282 114 l 340 661 q 353 710 343 692 q 375 739 363 729 q 401 752 388 749 q 426 756 415 756 q 451 752 438 756 q 474 739 464 749 q 490 710 485 729 q 493 661 496 692 l 435 114 l 601 114 l 660 661 q 673 710 663 692 q 696 739 683 729 q 722 752 708 749 q 746 756 735 756 z "},"n":{"ha":642,"x_min":35,"x_max":686,"o":"m 610 790 q 628 738 624 764 q 631 686 632 713 q 626 633 631 660 q 619 579 622 606 q 597 363 608 471 q 575 146 586 254 l 467 146 l 489 358 l 494 413 q 503 507 499 460 q 514 603 508 554 q 517 629 515 613 q 520 663 519 646 q 521 695 521 679 q 517 722 521 711 q 481 768 506 751 q 425 785 457 785 q 365 768 393 785 q 319 722 336 751 q 310 695 314 711 q 303 663 306 679 q 300 629 301 646 q 297 603 299 613 q 286 497 292 550 q 275 392 281 444 l 272 358 l 250 146 l 142 146 q 164 363 153 254 q 186 579 175 471 q 191 633 189 607 q 198 686 193 660 q 213 738 203 713 q 242 790 222 764 q 328 865 276 838 q 436 892 379 892 q 539 865 493 892 q 610 790 585 838 m 592 572 q 597 619 593 593 q 601 670 600 644 q 601 722 603 696 q 590 768 599 747 q 528 839 569 813 q 433 865 486 865 q 334 839 381 865 q 258 768 288 813 q 235 722 243 747 q 224 670 228 696 q 217 619 219 644 q 214 572 215 593 l 172 172 l 226 172 l 246 358 l 249 392 q 261 508 256 450 q 274 624 267 565 q 281 688 276 657 q 308 751 285 719 q 362 795 331 779 q 428 811 393 811 q 491 795 463 811 q 535 751 519 779 q 549 688 553 719 q 543 624 546 657 q 531 518 536 571 q 521 413 526 465 l 515 358 l 496 172 l 550 172 l 592 572 m 442 947 q 562 917 507 947 q 649 835 617 888 q 674 780 665 807 q 684 725 682 753 q 684 669 686 697 q 678 611 682 642 l 622 85 l 615 85 l 569 0 l 357 0 l 417 569 q 414 606 418 592 q 402 627 410 619 q 385 637 394 635 q 368 639 376 639 q 365 640 367 639 q 360 639 363 640 l 301 85 l 296 85 l 249 0 l 35 0 l 89 522 q 101 612 94 569 q 132 697 108 654 q 136 704 135 701 q 139 710 138 707 l 161 751 q 213 835 175 790 q 317 917 257 888 q 442 947 376 947 m 650 611 q 656 719 657 669 q 625 818 656 769 q 547 893 596 867 q 439 919 497 919 q 326 893 381 919 q 231 818 271 867 q 199 769 211 794 q 181 719 188 744 q 170 667 174 693 q 164 611 167 640 l 161 592 l 111 113 l 276 113 l 333 658 q 347 708 338 689 q 370 736 357 726 q 397 749 383 746 q 421 753 410 753 q 444 749 431 753 q 469 736 458 746 q 487 708 481 726 q 489 658 493 689 l 432 113 l 597 113 l 647 592 l 650 611 z "},"o":{"ha":642,"x_min":54,"x_max":683,"o":"m 572 832 q 609 780 597 807 q 624 725 621 753 q 625 667 628 697 q 618 604 622 636 q 606 481 611 542 q 593 357 600 419 q 542 236 585 288 q 442 161 500 185 q 322 145 385 138 q 213 201 260 153 q 176 253 188 226 q 161 308 164 281 q 160 367 158 336 q 167 429 163 397 q 180 553 174 492 q 193 676 186 614 q 243 797 200 746 q 344 871 286 847 q 464 887 401 894 q 572 832 526 879 m 589 583 q 596 640 592 613 q 600 694 600 667 q 592 747 600 721 q 565 799 585 772 q 506 847 540 831 q 435 863 472 863 q 363 851 399 864 q 297 813 326 838 q 246 754 267 789 q 221 676 225 719 q 208 563 214 619 q 197 450 203 507 q 190 394 194 421 q 185 340 185 367 q 192 286 185 313 q 219 235 200 260 q 313 175 257 186 q 423 183 369 164 q 517 247 476 201 q 565 357 558 292 q 576 469 571 414 q 589 583 582 525 m 525 492 q 521 455 524 481 q 515 401 518 429 q 508 347 513 372 q 497 308 503 321 q 426 238 471 257 q 338 226 381 218 q 265 268 294 235 q 242 357 235 301 q 251 449 246 403 q 260 542 256 494 q 264 578 261 553 q 270 633 267 604 q 278 687 274 661 q 289 725 282 713 q 360 796 315 776 q 449 807 406 815 q 521 765 492 799 q 544 676 550 732 q 534 584 539 631 q 525 492 529 538 m 483 349 q 493 431 490 390 q 500 513 496 472 q 509 594 504 553 q 518 676 514 636 q 494 754 524 728 q 424 782 464 781 q 348 759 385 783 q 301 683 311 735 q 292 602 294 643 q 285 521 289 561 q 276 438 281 479 q 268 357 272 397 q 277 299 264 322 q 312 264 290 276 q 361 250 333 251 q 414 260 389 249 q 458 292 439 271 q 483 349 478 314 m 299 0 q 164 38 224 0 q 75 142 104 75 q 59 205 64 172 q 60 282 54 238 l 90 571 q 105 642 94 611 q 131 701 115 672 l 135 711 l 136 713 l 135 713 l 153 742 l 154 746 q 167 774 160 761 q 181 801 174 788 q 293 908 225 868 q 438 947 361 947 q 573 908 513 947 q 663 801 633 868 q 678 737 674 769 q 678 660 683 704 l 649 371 q 632 293 643 326 q 603 231 621 260 l 586 207 l 563 165 l 563 167 l 561 165 l 563 165 l 549 142 q 441 38 508 75 q 299 0 374 0 m 135 371 q 149 243 126 294 q 227 147 174 182 q 350 113 281 113 q 479 147 418 113 q 579 243 540 182 q 606 301 596 271 q 621 371 617 331 l 650 660 q 651 731 656 700 q 636 790 647 763 q 556 885 610 850 q 435 919 503 919 q 304 885 365 919 q 206 790 243 850 q 178 731 188 763 q 164 660 169 700 l 135 371 m 368 278 q 315 301 336 278 q 297 356 294 324 l 331 661 q 337 698 332 679 q 364 735 342 717 q 417 753 386 753 q 469 731 449 753 q 486 676 489 708 l 454 371 q 447 335 451 354 q 419 297 442 315 q 395 283 408 289 q 368 278 382 278 m 364 690 l 374 708 l 372 707 l 364 692 l 364 690 m 325 356 q 337 321 322 336 q 371 306 351 306 q 383 307 378 306 l 413 588 q 401 624 415 608 q 365 640 386 640 q 360 640 363 640 q 356 639 358 639 l 325 356 z "},"p":{"ha":642,"x_min":38,"x_max":697,"o":"m 632 731 q 613 608 640 668 q 531 507 586 547 q 469 474 499 483 q 409 461 439 464 q 349 460 379 458 q 286 461 318 461 l 253 138 l 144 138 l 224 893 q 269 893 232 893 q 349 893 307 893 q 428 892 392 893 q 474 890 465 892 q 578 836 536 879 q 632 731 621 793 m 489 511 q 577 592 544 539 q 607 704 610 646 q 569 806 604 763 q 476 863 535 850 q 433 865 467 864 q 363 867 400 867 q 292 867 325 867 q 249 867 258 867 l 175 164 l 229 164 l 263 489 q 319 488 290 488 q 376 488 347 488 q 433 492 406 488 q 489 511 461 496 m 551 678 q 516 596 546 632 q 442 547 486 560 q 407 543 432 544 q 354 542 382 542 q 301 542 326 542 q 268 542 276 542 l 297 813 q 331 813 306 813 q 383 813 356 813 q 435 811 411 813 q 469 807 460 810 q 533 758 510 794 q 551 678 556 722 m 436 574 q 497 613 472 585 q 525 678 521 642 q 510 742 528 714 q 458 781 492 771 q 431 783 451 782 q 390 785 411 785 q 348 785 368 785 q 321 785 328 785 l 299 569 q 325 569 306 569 q 367 569 344 569 q 408 570 389 569 q 436 574 428 571 m 493 676 q 465 622 490 644 q 407 600 439 600 l 331 600 l 347 754 l 424 754 q 476 731 456 754 q 493 676 496 708 m 404 628 q 371 640 392 640 l 363 640 l 361 628 l 404 628 m 251 0 l 38 0 l 126 854 l 171 935 l 172 949 l 443 949 q 544 928 499 949 q 626 868 590 907 q 686 676 697 788 q 664 594 681 633 q 621 521 647 554 l 604 490 q 597 478 599 482 q 489 364 560 407 q 338 321 418 321 l 329 321 l 304 86 l 297 86 l 251 0 m 113 114 l 279 114 l 313 433 l 389 433 q 485 452 439 433 q 568 504 532 471 q 628 582 604 538 q 658 676 653 626 q 650 769 664 725 q 607 850 636 814 q 440 919 540 919 l 197 919 l 113 114 z "},"q":{"ha":642,"x_min":60,"x_max":685,"o":"m 626 639 q 614 522 619 581 q 601 404 608 464 q 593 338 597 365 q 579 288 589 311 q 553 242 569 265 q 507 188 536 218 l 538 86 l 422 86 l 401 139 q 341 139 369 138 q 288 149 313 140 q 240 173 263 157 q 197 217 218 189 q 171 270 178 243 q 163 325 164 297 q 167 381 163 353 q 174 440 171 410 q 186 558 181 499 q 199 676 192 618 q 242 788 206 738 q 336 867 278 839 q 453 888 394 893 q 560 847 513 883 q 622 756 611 806 q 626 639 633 706 m 596 614 q 601 670 599 643 q 599 723 603 697 q 584 772 596 749 q 550 815 572 794 q 456 862 513 854 q 343 842 400 869 q 257 766 285 814 q 222 660 229 718 q 211 547 217 603 q 200 438 206 492 q 193 382 197 410 q 190 328 189 354 q 199 277 192 303 q 226 228 207 251 q 269 190 247 203 q 316 172 292 176 q 367 167 340 167 q 424 168 394 167 l 442 113 l 500 113 l 474 193 q 520 244 503 224 q 548 284 538 264 q 563 328 558 304 q 572 392 568 353 q 584 504 579 449 q 596 614 589 560 m 529 488 q 526 451 528 476 q 519 396 524 425 q 510 341 515 367 q 499 303 506 315 q 428 232 474 251 q 340 221 383 213 q 268 263 297 229 q 244 354 239 297 q 254 445 250 400 q 264 536 258 490 q 267 574 265 549 q 273 629 269 600 q 281 685 276 658 q 290 724 286 711 q 363 794 317 775 q 453 806 410 814 q 525 763 496 797 q 549 674 554 729 q 540 581 544 626 q 529 488 535 535 m 486 343 q 497 428 493 388 q 504 510 500 469 q 513 592 508 551 q 521 674 517 633 q 497 753 526 725 q 428 782 468 781 q 352 758 389 783 q 306 681 315 733 q 296 600 299 640 q 289 518 293 560 q 280 436 285 478 q 271 354 275 394 q 294 274 265 301 q 363 245 324 247 q 440 267 403 243 q 486 343 476 292 m 421 300 q 397 285 410 289 q 371 282 383 282 q 318 303 339 282 q 301 357 297 325 l 332 660 q 340 696 335 678 q 368 732 344 714 q 417 751 388 751 q 468 728 449 751 q 483 674 488 706 l 451 369 q 445 335 450 354 q 421 300 440 317 m 329 357 q 340 322 326 336 q 374 308 354 308 q 385 311 379 308 l 414 585 q 403 623 417 607 q 365 639 389 639 q 358 639 358 639 l 329 357 m 299 0 q 183 30 236 0 q 99 110 129 60 q 72 164 81 136 q 62 219 64 192 q 63 274 60 246 q 68 332 65 303 l 69 346 q 71 360 69 354 q 72 372 71 365 q 84 481 79 436 q 92 556 89 526 q 97 600 94 585 q 101 622 99 615 q 113 658 107 640 q 129 692 119 676 l 129 694 l 132 697 l 157 740 q 220 846 176 799 q 317 917 264 893 q 376 938 346 929 q 438 947 407 947 q 538 927 492 947 q 617 873 583 907 q 667 792 650 839 q 682 692 685 746 q 677 647 679 669 q 672 601 675 624 l 669 574 q 668 561 668 568 l 653 421 q 647 362 650 389 q 636 309 643 335 q 617 258 629 283 q 586 207 606 233 l 569 176 l 615 32 l 608 32 l 563 -51 l 328 -51 l 315 0 l 299 0 m 167 211 q 244 140 194 167 q 350 113 293 113 l 361 113 l 378 115 l 396 61 l 575 61 l 536 188 l 546 199 q 585 251 571 225 q 607 303 599 276 q 619 360 615 331 q 626 421 624 389 l 642 561 q 646 601 644 586 q 651 645 649 624 q 656 689 653 667 q 641 779 657 738 q 595 851 625 821 q 524 899 565 882 q 435 917 483 917 q 380 911 407 917 q 325 890 353 906 q 229 817 269 867 q 174 708 189 767 q 170 692 172 704 q 165 652 168 679 q 158 580 163 625 q 146 467 153 535 q 144 456 144 460 q 143 447 144 451 q 142 435 143 442 q 140 421 142 428 q 135 313 135 364 q 167 211 135 263 z "},"r":{"ha":642,"x_min":35,"x_max":688,"o":"m 590 333 q 580 235 585 285 q 569 136 575 185 l 463 136 q 469 197 465 167 q 475 260 472 228 q 478 284 476 267 q 482 321 481 301 q 484 358 483 340 q 483 382 485 375 q 457 433 478 413 q 404 458 436 454 q 344 461 375 463 q 283 460 314 460 l 250 136 l 143 136 l 222 892 l 404 892 q 492 883 451 892 q 567 840 532 875 q 615 768 599 810 q 626 681 631 726 q 598 590 622 628 q 542 514 574 553 q 568 469 557 489 q 585 431 579 450 q 592 388 590 411 q 590 333 593 365 m 546 163 q 556 256 551 210 q 565 349 560 301 q 564 397 568 375 q 551 439 560 419 q 532 476 543 458 q 508 514 521 494 q 563 581 538 547 q 596 660 589 614 q 595 742 606 703 q 557 811 585 782 q 490 855 525 844 q 411 865 456 865 l 246 865 l 172 163 l 226 163 l 260 486 l 392 486 q 453 471 425 486 q 497 426 482 456 q 512 363 515 394 q 506 297 508 331 q 499 229 503 263 q 492 163 494 196 l 546 163 m 546 675 q 510 594 540 631 q 436 546 481 558 q 402 542 426 543 q 350 540 378 540 q 298 540 322 540 q 265 540 274 540 l 294 811 q 327 811 303 811 q 378 811 351 811 q 430 810 406 811 q 463 806 454 808 q 527 757 504 793 q 546 675 550 721 m 432 572 q 492 611 468 583 q 519 675 515 639 q 504 740 522 711 q 453 779 486 768 q 427 782 446 781 q 386 783 408 783 q 344 783 364 783 q 318 783 325 783 l 294 568 q 321 568 301 568 q 363 568 340 568 q 404 569 385 568 q 432 572 424 569 m 440 751 q 479 723 465 743 q 490 676 493 703 q 469 631 488 651 q 425 603 451 610 q 392 599 410 599 q 371 600 376 599 l 351 600 l 329 600 l 344 753 l 367 753 q 376 753 371 753 q 388 754 381 753 l 408 754 q 426 753 418 754 q 440 751 433 753 m 401 626 q 392 633 397 629 q 382 639 388 636 q 361 642 368 642 l 360 628 l 379 628 q 394 626 386 626 l 401 626 m 356 0 l 378 213 q 381 265 381 240 q 374 300 382 289 q 352 315 365 311 q 328 321 339 319 l 303 86 l 296 86 l 250 0 l 35 0 l 124 854 l 168 935 l 169 947 l 397 947 q 469 944 435 947 q 533 930 503 940 q 591 899 564 919 q 642 844 618 879 q 678 764 668 808 q 683 676 688 719 q 664 598 679 636 q 621 525 649 560 l 614 514 q 649 415 646 464 q 644 308 651 367 l 621 86 l 615 86 l 568 0 l 356 0 m 365 435 q 407 429 385 435 q 444 404 429 424 q 454 361 456 389 q 450 303 453 333 l 450 292 l 431 114 l 596 114 l 617 308 q 620 410 622 364 q 590 503 618 457 l 581 517 l 593 531 q 656 678 649 597 q 619 826 664 760 q 574 878 599 860 q 520 906 549 896 q 460 917 492 915 q 394 919 429 919 l 364 919 l 332 919 l 194 919 l 110 114 l 278 114 l 311 433 l 333 433 q 346 435 340 433 l 365 435 z "},"s":{"ha":642,"x_min":54,"x_max":681,"o":"m 626 732 l 511 732 q 484 765 501 751 q 447 783 467 778 q 404 783 426 788 q 361 767 382 779 q 326 735 340 754 q 307 696 313 717 q 304 653 301 675 q 319 614 307 632 q 350 585 333 594 q 393 574 367 575 q 436 569 415 571 q 476 558 457 567 q 545 513 517 543 q 588 442 574 482 q 594 355 600 399 q 566 272 588 311 q 508 203 544 233 q 426 160 472 174 q 336 149 381 144 q 256 174 292 154 q 195 229 219 194 q 164 308 171 264 l 279 308 q 306 276 289 289 q 344 258 324 263 q 386 257 364 253 q 429 274 408 261 q 464 305 450 286 q 483 344 478 324 q 486 387 489 365 q 471 426 483 408 q 440 455 457 446 q 397 467 424 464 q 354 471 375 468 q 314 481 333 474 q 245 527 274 496 q 203 599 217 558 q 195 684 189 640 q 224 767 201 728 q 282 835 246 806 q 364 879 318 864 q 454 889 410 893 q 535 865 499 885 q 595 810 571 844 q 626 732 619 776 m 528 758 l 592 758 q 544 824 576 799 q 474 859 513 850 q 392 860 435 868 q 310 824 349 851 q 249 758 271 796 q 223 681 228 721 q 232 601 218 640 q 278 535 246 563 q 351 497 307 508 q 391 494 371 493 q 431 488 411 494 q 494 441 472 475 q 514 363 517 407 q 479 281 510 314 q 409 236 449 249 q 328 233 369 224 q 263 282 288 243 l 199 282 q 245 216 214 242 q 316 181 276 190 q 399 179 356 171 q 481 215 442 188 q 540 281 518 243 q 567 360 563 319 q 558 439 571 400 q 513 506 544 478 q 438 542 481 532 q 398 546 418 546 q 358 553 378 546 q 295 599 318 565 q 276 676 272 633 q 311 757 281 724 q 381 803 342 790 q 462 807 421 817 q 528 758 503 797 m 493 79 q 388 15 440 31 q 300 0 336 0 q 201 19 249 0 q 119 72 153 38 q 57 268 54 142 l 103 351 q 102 356 101 354 q 103 361 103 358 l 192 361 q 135 415 160 383 q 100 485 111 446 q 92 589 86 536 q 126 696 97 643 q 132 710 129 701 l 153 746 q 186 810 164 779 q 236 868 208 842 q 344 933 292 918 q 435 949 397 949 q 534 929 488 949 q 617 874 581 910 q 664 790 649 842 q 681 672 679 738 l 674 672 l 628 588 l 540 588 q 635 460 607 544 q 647 357 651 407 q 627 278 643 317 q 583 207 611 240 l 563 167 l 557 158 q 493 79 531 114 m 131 333 q 188 181 128 242 q 262 131 219 149 q 351 113 304 113 q 432 126 385 113 q 528 185 479 140 q 609 308 588 238 q 610 450 631 379 q 531 560 586 519 q 400 600 476 600 q 333 647 349 600 q 334 692 328 669 q 360 731 340 715 q 415 753 383 753 q 460 738 440 753 q 483 700 479 724 l 653 700 q 638 784 653 744 q 594 853 624 824 q 520 903 563 885 q 432 921 478 921 q 351 907 397 921 q 256 849 304 893 q 174 725 196 796 q 174 583 153 654 q 251 474 196 514 q 382 433 307 433 q 424 421 406 433 q 450 385 443 408 q 449 342 457 364 q 424 303 442 319 q 368 279 397 279 q 323 294 342 279 q 299 333 304 310 l 131 333 m 344 318 q 361 308 351 311 q 344 318 356 315 m 393 629 q 383 635 386 632 q 372 640 379 639 q 393 629 381 629 z "},"t":{"ha":589,"x_min":97,"x_max":657,"o":"m 599 892 l 588 786 l 449 786 l 382 151 l 274 151 l 340 786 l 204 786 l 215 892 l 599 892 l 599 892 m 563 813 l 568 865 l 239 865 l 233 813 l 369 813 l 303 178 l 357 178 l 424 813 l 563 813 l 563 813 m 164 936 l 165 947 l 657 947 l 633 726 l 628 726 l 581 640 l 489 640 l 431 86 l 424 86 l 378 0 l 164 0 l 231 640 l 97 640 l 119 854 l 164 936 m 190 919 l 174 754 l 307 754 l 239 114 l 406 114 l 474 754 l 610 754 l 626 919 l 190 919 z "},"u":{"ha":642,"x_min":56,"x_max":710,"o":"m 607 464 q 602 409 604 436 q 596 356 600 382 q 581 303 592 329 q 551 250 571 276 q 467 174 518 201 q 358 147 415 147 q 256 174 301 147 q 183 250 210 201 q 167 303 171 276 q 163 356 163 329 q 168 409 164 382 q 175 464 172 436 q 197 678 186 574 q 219 894 208 783 l 328 894 l 307 688 l 300 633 q 290 537 294 585 q 281 440 286 489 q 277 413 279 429 q 274 379 275 397 q 274 345 274 361 q 278 318 274 329 q 313 272 289 289 q 369 254 338 254 q 430 272 401 254 q 475 318 458 289 q 485 345 481 329 q 491 379 489 361 q 494 413 493 397 q 497 440 496 429 q 508 547 503 493 q 519 654 514 601 l 524 688 l 544 894 l 651 894 q 629 678 640 783 q 607 464 618 574 m 536 272 q 558 319 550 293 q 571 372 567 344 q 576 424 575 399 q 581 471 578 450 q 601 669 592 574 q 622 868 611 765 l 568 868 l 550 688 l 546 654 q 533 537 539 596 q 521 419 528 478 q 514 353 518 385 q 485 289 510 321 q 433 244 464 261 q 367 228 401 228 q 303 244 332 228 q 258 289 275 261 q 245 353 242 321 q 251 419 249 385 q 263 526 258 472 q 274 633 268 579 l 281 688 l 299 868 l 244 868 q 224 669 233 765 q 203 471 214 572 q 197 424 200 450 q 192 372 193 399 q 192 319 190 344 q 204 272 194 293 q 266 200 224 226 q 361 174 308 174 q 460 200 414 174 q 536 272 506 226 m 300 0 q 165 38 225 0 q 76 142 106 75 q 60 204 65 171 q 61 282 56 238 l 121 854 l 167 935 l 168 947 l 390 947 l 331 372 q 331 338 328 351 q 342 317 335 325 q 357 308 349 310 q 372 306 365 306 q 385 307 379 306 l 442 854 l 486 935 l 488 947 l 710 947 l 650 371 q 633 293 644 328 q 603 229 622 258 l 586 208 l 564 167 q 561 160 564 165 l 549 142 q 499 87 528 113 q 438 42 471 61 q 370 11 406 22 q 300 0 335 0 m 136 371 q 150 243 128 294 q 230 147 176 182 q 351 113 283 113 q 481 147 419 113 q 579 243 542 182 q 608 301 599 271 q 622 371 618 331 l 679 919 l 513 919 l 456 372 q 442 323 451 342 q 419 294 432 304 q 393 281 407 285 q 369 278 379 278 q 345 281 358 278 q 322 294 332 285 q 305 323 311 304 q 303 372 299 342 l 360 919 l 193 919 l 136 371 z "},"v":{"ha":642,"x_min":122,"x_max":710,"o":"m 636 893 l 439 151 l 264 151 l 222 893 l 332 893 l 365 288 l 526 893 l 636 893 l 636 893 m 418 178 l 601 867 l 547 867 l 382 246 l 340 246 l 306 867 l 251 867 l 289 178 l 344 178 l 364 178 l 418 178 l 418 178 m 485 949 l 710 949 l 486 86 l 479 86 l 433 0 l 168 0 l 122 854 l 169 939 l 168 949 l 393 949 l 403 721 l 439 854 l 481 931 l 485 949 m 463 114 l 675 921 l 507 921 l 388 456 l 381 618 l 365 921 l 197 921 l 240 114 l 463 114 z "},"w":{"ha":967,"x_min":56,"x_max":1029,"o":"m 972 890 q 945 631 958 760 q 918 372 932 503 q 872 248 911 303 q 763 165 833 193 q 632 154 699 139 q 573 178 599 161 q 524 215 547 196 q 465 178 494 196 q 400 154 436 161 q 334 149 364 147 q 272 165 304 151 q 181 248 208 193 q 161 371 154 303 q 188 631 175 501 q 215 890 201 760 l 324 890 l 301 679 l 296 625 q 285 531 290 578 q 276 438 281 485 q 273 410 275 426 q 269 377 271 394 q 269 344 268 360 q 272 317 269 328 q 308 272 283 289 q 365 256 333 256 q 426 272 397 256 q 469 317 454 289 q 479 344 475 328 q 486 377 483 360 q 490 410 489 394 q 493 436 492 425 q 503 541 499 489 q 514 646 508 593 l 518 679 l 540 890 l 649 890 l 626 679 q 624 652 625 665 q 621 626 622 639 q 610 531 615 578 q 601 438 606 485 q 598 410 600 426 q 594 377 596 394 q 593 344 593 360 q 596 317 593 328 q 632 272 607 289 q 689 256 657 256 q 749 272 721 256 q 793 317 778 289 q 804 344 800 328 q 810 377 808 360 q 814 410 813 394 q 817 436 815 425 q 827 541 822 489 q 838 646 832 593 l 842 679 l 864 890 l 972 890 m 892 378 q 917 621 904 500 q 943 864 931 742 l 889 864 l 869 679 l 865 646 q 854 531 860 588 q 842 415 849 474 q 835 352 839 383 q 806 289 831 321 q 753 245 785 261 q 686 229 721 229 q 579 289 614 229 q 565 352 563 321 q 571 415 568 383 q 582 521 576 468 q 593 626 588 574 q 596 652 594 639 q 599 679 597 665 l 618 864 l 564 864 l 544 679 l 540 646 q 529 531 535 588 q 517 415 524 474 q 510 352 514 383 q 481 289 506 321 q 428 245 460 261 q 363 229 397 229 q 299 245 328 229 q 254 289 271 261 q 241 352 238 321 q 247 415 244 383 q 258 520 253 468 q 269 625 264 572 l 275 679 l 294 864 l 240 864 q 215 621 228 742 q 189 378 201 500 q 206 262 182 313 q 293 188 229 211 q 358 175 328 175 q 416 185 389 175 q 470 212 443 194 q 526 249 497 229 q 574 212 551 229 q 623 185 597 194 q 678 174 649 175 q 747 188 708 174 q 850 262 815 211 q 892 378 885 313 m 807 947 l 1029 947 l 967 354 q 903 203 956 271 l 899 193 l 888 175 l 888 176 l 883 169 l 883 168 l 882 165 l 882 164 l 878 156 q 848 112 865 132 q 810 72 831 92 q 719 19 769 39 q 618 0 669 0 q 537 12 575 0 q 467 50 499 24 l 464 54 q 385 13 428 26 q 300 0 343 0 q 202 19 247 0 q 121 72 157 39 q 71 160 86 108 q 60 265 56 213 q 69 366 64 314 q 81 486 74 418 q 97 643 88 554 q 121 854 107 732 l 165 936 l 167 947 l 389 947 l 329 374 q 330 338 326 351 q 340 318 333 325 q 356 309 347 311 q 371 307 364 307 q 383 308 379 307 l 440 854 l 486 936 l 488 947 l 708 947 l 649 374 q 649 338 646 351 q 660 318 653 325 q 676 309 667 311 q 692 307 685 307 q 704 308 699 307 l 761 854 l 806 936 l 807 947 m 925 240 q 926 243 926 242 l 925 240 m 775 374 q 762 324 772 343 q 739 296 751 306 q 713 283 726 286 q 689 279 699 279 q 665 283 678 279 q 641 296 651 286 q 624 324 631 306 q 621 374 618 343 l 678 919 l 513 919 l 456 374 q 442 324 453 343 q 419 296 432 306 q 393 283 407 286 q 368 279 379 279 q 344 283 357 279 q 320 296 331 286 q 304 324 310 306 q 301 374 299 343 l 358 919 l 192 919 l 174 747 q 152 552 163 650 q 132 354 142 454 q 142 259 126 304 q 189 179 157 214 q 263 130 221 147 q 351 113 304 113 q 501 163 432 113 l 517 174 l 529 163 q 669 113 588 113 q 762 130 715 113 q 844 179 808 147 q 908 259 885 214 q 939 354 932 304 q 960 552 950 454 q 981 747 969 650 l 999 919 l 832 919 l 775 374 z "},"x":{"ha":642,"x_min":11,"x_max":729,"o":"m 642 889 l 450 515 l 563 140 l 446 140 l 378 371 l 260 140 l 143 140 l 333 515 l 222 889 l 339 889 l 407 660 l 525 889 l 642 889 m 421 515 l 599 863 l 540 863 l 400 588 l 318 863 l 260 863 l 363 515 l 186 168 l 244 168 l 385 443 l 467 168 l 525 168 l 421 515 m 729 947 l 513 517 l 538 428 q 590 253 563 344 q 639 85 618 161 l 631 85 l 583 0 l 353 0 l 314 128 l 293 85 l 289 85 l 243 0 l 11 0 l 75 128 l 226 426 q 195 531 211 476 q 163 641 179 586 q 131 750 147 696 q 100 854 114 804 l 149 939 l 144 947 l 383 947 l 422 818 q 442 854 431 839 l 447 863 l 490 947 l 729 947 m 482 517 l 685 919 l 506 919 l 415 740 l 363 919 l 183 919 l 303 517 l 99 113 l 278 113 l 368 292 l 421 113 l 600 113 l 482 517 z "},"y":{"ha":642,"x_min":78,"x_max":708,"o":"m 650 901 q 637 761 643 831 q 619 621 631 692 q 601 551 615 582 q 560 492 586 521 q 501 446 532 463 q 438 415 471 429 l 408 138 l 300 138 l 329 415 q 270 446 297 429 q 224 492 243 463 q 188 621 183 547 q 203 761 194 692 q 218 901 211 831 l 326 901 q 314 790 319 844 q 303 679 308 735 q 297 625 300 651 q 307 571 293 599 q 343 533 319 547 q 394 519 367 519 q 448 533 422 519 q 492 571 474 547 q 513 625 511 599 q 518 679 515 651 q 529 790 524 735 q 542 901 535 844 l 650 901 m 592 614 q 601 678 599 646 q 607 744 603 711 q 613 809 610 776 q 621 874 617 842 l 567 874 l 542 644 q 497 537 535 582 q 392 492 458 492 q 294 537 325 492 q 271 644 264 582 l 296 874 l 242 874 q 234 809 238 842 q 228 743 231 776 q 219 678 224 711 q 215 614 215 646 q 223 551 213 578 q 254 497 233 524 q 303 459 276 472 q 357 432 329 446 l 329 165 l 383 165 l 411 432 q 473 459 443 446 q 529 497 503 472 q 571 551 557 524 q 592 614 585 578 m 221 289 q 114 389 150 322 q 86 538 78 456 l 119 853 l 165 935 l 167 946 l 388 946 l 356 640 q 357 605 353 618 q 368 585 361 592 q 383 576 375 578 q 399 574 392 574 l 411 574 l 440 853 l 485 935 l 486 946 l 708 946 l 675 628 q 653 544 671 583 q 608 469 635 504 l 601 454 l 592 438 l 592 439 l 586 425 q 540 365 565 393 q 482 314 514 336 l 458 86 l 451 86 l 406 0 l 192 0 l 221 289 m 422 579 q 424 581 422 579 l 453 632 l 422 579 m 161 628 q 185 490 153 551 q 283 399 218 429 l 296 394 l 267 113 l 433 113 l 463 394 l 478 399 q 594 490 549 429 q 647 628 639 551 l 678 918 l 511 918 l 482 640 q 469 591 479 610 q 447 563 460 572 q 421 549 435 553 q 396 546 407 546 q 372 549 385 546 q 348 563 358 553 q 331 591 338 572 q 328 640 325 610 l 357 918 l 192 918 l 161 628 z "},"z":{"ha":658,"x_min":28,"x_max":729,"o":"m 604 251 l 593 146 l 135 146 l 149 288 l 554 781 l 201 781 l 213 886 l 671 886 l 656 744 l 253 251 l 604 251 l 604 251 m 569 172 l 575 225 l 199 225 l 629 753 l 642 860 l 238 860 l 232 807 l 608 807 l 176 279 l 165 172 l 569 172 l 569 172 m 692 708 l 654 639 l 386 307 l 663 307 l 639 85 l 633 85 l 588 0 l 28 0 l 50 214 l 94 296 l 96 304 l 364 640 l 94 640 l 117 854 l 161 936 l 163 947 l 729 947 l 706 726 l 692 708 m 633 279 l 313 279 l 681 736 l 700 919 l 188 919 l 169 753 l 490 753 l 122 294 l 103 113 l 615 113 l 633 279 z "},"Z":{"ha":658,"x_min":28,"x_max":729,"o":"m 604 251 l 593 146 l 135 146 l 149 288 l 554 781 l 201 781 l 213 886 l 671 886 l 656 744 l 253 251 l 604 251 l 604 251 m 569 172 l 575 225 l 199 225 l 629 753 l 642 860 l 238 860 l 232 807 l 608 807 l 176 279 l 165 172 l 569 172 l 569 172 m 692 708 l 654 639 l 386 307 l 663 307 l 639 85 l 633 85 l 588 0 l 28 0 l 50 214 l 94 296 l 96 304 l 364 640 l 94 640 l 117 854 l 161 936 l 163 947 l 729 947 l 706 726 l 692 708 m 633 279 l 313 279 l 681 736 l 700 919 l 188 919 l 169 753 l 490 753 l 122 294 l 103 113 l 615 113 l 633 279 z "},"!":{"ha":329,"x_min":40,"x_max":393,"o":"m 329 893 l 279 410 l 175 410 l 225 893 l 329 893 m 256 436 l 300 865 l 249 865 l 204 436 l 256 436 m 210 253 q 244 238 231 253 q 256 200 258 222 q 236 161 253 176 q 199 146 219 146 q 163 161 176 146 q 151 200 149 176 q 171 238 154 222 q 210 253 188 253 m 229 200 q 224 219 231 211 q 207 226 218 226 q 188 219 196 226 q 178 200 179 211 q 183 181 175 189 q 201 172 190 172 q 219 181 213 172 q 229 200 226 189 m 169 947 l 393 947 l 331 353 l 324 353 l 285 281 q 308 243 300 265 q 314 197 317 221 q 303 158 311 176 q 282 126 294 140 l 279 119 l 250 68 l 247 63 q 203 17 232 35 q 143 0 175 0 q 69 31 99 0 q 46 107 40 63 q 51 128 47 118 q 60 150 54 139 l 63 157 l 94 213 q 105 242 97 228 q 124 267 113 256 l 63 267 l 124 854 l 168 936 l 169 947 m 138 381 l 306 381 l 363 919 l 194 919 l 138 381 m 213 281 q 150 256 178 281 q 118 197 122 231 q 138 138 115 161 q 194 114 160 114 q 256 138 229 114 q 286 197 283 161 q 269 256 290 231 q 213 281 247 281 z "},"?":{"ha":642,"x_min":93,"x_max":693,"o":"m 222 160 l 219 156 l 221 157 l 222 160 m 217 149 q 219 156 217 153 l 217 149 m 368 253 q 403 238 390 253 q 414 200 417 222 q 395 161 411 176 q 357 146 379 146 q 322 161 336 146 q 311 200 308 176 q 331 238 314 222 q 368 253 347 253 m 360 172 q 378 181 371 172 q 389 200 386 189 q 383 219 390 211 q 365 226 376 226 q 346 219 354 226 q 336 200 338 211 q 341 181 333 189 q 360 172 349 172 m 208 732 q 276 833 231 793 q 376 887 322 872 q 485 888 431 901 q 581 831 540 875 q 626 733 617 789 q 614 619 635 676 q 584 564 601 588 q 545 522 567 540 q 498 491 524 504 q 443 465 472 478 l 436 407 l 328 407 l 336 488 q 342 528 339 510 q 369 561 346 546 q 389 568 379 567 q 410 569 399 569 q 449 581 428 571 q 508 639 488 599 q 516 722 531 685 q 469 775 501 758 q 394 783 436 792 q 324 732 353 775 l 208 732 m 578 603 q 602 699 603 649 q 576 789 601 749 q 505 851 549 832 q 414 867 461 871 q 322 835 367 863 q 249 758 278 807 l 313 758 q 388 808 346 797 q 467 806 431 818 q 528 760 504 793 q 547 679 551 728 q 514 600 542 635 q 442 550 486 565 q 401 543 421 543 q 378 538 386 542 q 368 518 371 533 q 363 476 364 497 q 358 435 361 456 l 413 435 l 418 483 q 508 526 467 503 q 578 603 550 550 m 583 903 q 667 796 640 863 q 678 654 693 729 q 656 589 671 621 q 619 529 640 557 l 593 482 q 489 368 554 413 l 488 353 l 481 353 l 442 282 q 465 244 457 267 q 471 197 474 222 q 459 158 468 176 q 436 125 450 140 l 408 76 l 406 67 q 361 19 390 38 q 300 0 332 0 q 227 32 256 0 q 204 107 199 64 q 217 149 206 129 l 221 157 l 224 160 l 222 160 l 253 214 q 282 268 258 243 l 221 268 l 236 413 q 254 476 240 453 l 257 483 l 289 542 q 367 622 310 601 q 382 625 374 625 q 400 626 390 625 l 401 626 q 368 640 389 640 q 318 610 340 640 l 306 588 l 93 588 q 133 701 104 650 l 135 704 l 135 706 l 136 713 l 139 714 l 163 757 q 197 820 176 792 q 244 872 218 849 q 336 928 285 908 q 440 949 388 949 q 515 937 479 949 q 583 903 551 925 m 443 197 q 426 256 447 232 q 369 281 404 281 q 308 256 335 281 q 276 197 281 232 q 295 138 274 163 q 351 114 317 114 q 413 138 386 114 q 443 197 440 163 m 650 657 q 642 784 665 725 q 565 881 618 843 q 438 921 508 921 q 344 903 390 921 q 260 853 297 885 q 202 784 225 822 q 172 701 179 746 l 340 701 q 374 740 351 725 q 421 754 397 754 q 485 708 467 754 q 484 658 493 685 q 451 615 475 632 q 422 602 436 604 q 396 597 407 600 q 374 596 381 597 q 308 501 317 575 l 296 381 l 463 381 l 469 447 l 485 454 q 594 535 551 482 q 650 657 638 589 z "}}}
